<svg width="149" height="44" viewBox="0 0 149 44" fill="none" xmlns="http://www.w3.org/2000/svg">
<rect width="148.5" height="44" rx="5" fill="black"/>
<path d="M98.5094 19.5639V22.084H96.9298V23.7367H98.5094V29.3522C98.5094 31.2697 99.3768 32.0366 101.559 32.0366C101.943 32.0366 102.308 31.991 102.627 31.9362V30.3018C102.353 30.3292 102.18 30.3474 101.879 30.3474C100.902 30.3474 100.473 29.8909 100.473 28.85V23.7367H102.627V22.084H100.473V19.5639H98.5094Z" fill="white"/>
<path d="M108.187 32.1736C111.09 32.1736 112.871 30.2287 112.871 27.0055C112.871 23.8006 111.081 21.8466 108.187 21.8466C105.283 21.8466 103.493 23.8006 103.493 27.0055C103.493 30.2287 105.274 32.1736 108.187 32.1736ZM108.187 30.4296C106.479 30.4296 105.52 29.1787 105.52 27.0055C105.52 24.8507 106.479 23.5906 108.187 23.5906C109.885 23.5906 110.853 24.8507 110.853 27.0055C110.853 29.1696 109.885 30.4296 108.187 30.4296Z" fill="white"/>
<path d="M114.394 31.9819H116.357V26.1107C116.357 24.7137 117.407 23.7732 118.896 23.7732C119.243 23.7732 119.827 23.8371 119.991 23.8919V21.9562C119.781 21.9014 119.407 21.874 119.115 21.874C117.818 21.874 116.713 22.5862 116.43 23.5632H116.284V22.0384H114.394V31.9819Z" fill="white"/>
<path d="M124.866 23.5176C126.318 23.5176 127.267 24.5311 127.313 26.0925H122.291C122.4 24.5402 123.414 23.5176 124.866 23.5176ZM127.304 29.2974C126.939 30.0735 126.126 30.5027 124.939 30.5027C123.368 30.5027 122.355 29.3978 122.291 27.6538V27.5443H129.313V26.8594C129.313 23.7367 127.642 21.8466 124.875 21.8466C122.072 21.8466 120.291 23.8645 120.291 27.0421C120.291 30.2196 122.035 32.1736 124.884 32.1736C127.158 32.1736 128.746 31.0779 129.194 29.2974H127.304Z" fill="white"/>
<path d="M85.6355 28.3099C85.7869 30.7516 87.8216 32.3131 90.8501 32.3131C94.0867 32.3131 96.112 30.6758 96.112 28.0638C96.112 26.0102 94.9574 24.8745 92.1561 24.2215L90.6513 23.8524C88.8721 23.436 88.1529 22.8776 88.1529 21.9028C88.1529 20.6725 89.2696 19.8681 90.9447 19.8681C92.5346 19.8681 93.6324 20.6536 93.8312 21.9123H95.8943C95.7713 19.6126 93.746 17.9943 90.9731 17.9943C87.992 17.9943 86.0046 19.6126 86.0046 22.0448C86.0046 24.0511 87.1308 25.2436 89.6008 25.8209L91.3611 26.2468C93.1687 26.6726 93.9637 27.2972 93.9637 28.3383C93.9637 29.5496 92.7144 30.4298 91.0109 30.4298C89.1844 30.4298 87.9163 29.6064 87.7364 28.3099H85.6355Z" fill="white"/>
<path d="M65.2994 21.874C63.948 21.874 62.7793 22.5497 62.1766 23.6819H62.0305V22.0384H60.1405V35.2872H62.1036V30.4753H62.2588C62.7793 31.5253 63.9024 32.1462 65.3177 32.1462C67.8286 32.1462 69.4265 30.1648 69.4265 27.0055C69.4265 23.8463 67.8286 21.874 65.2994 21.874ZM64.7424 30.384C63.0989 30.384 62.0671 29.0874 62.0671 27.0147C62.0671 24.9328 63.0989 23.6363 64.7515 23.6363C66.4134 23.6363 67.4086 24.9054 67.4086 27.0055C67.4086 29.1148 66.4134 30.384 64.7424 30.384Z" fill="white"/>
<path d="M76.2959 21.874C74.9445 21.874 73.7758 22.5497 73.1731 23.6819H73.027V22.0384H71.1369V35.2872H73.1001V30.4753H73.2553C73.7758 31.5253 74.8988 32.1462 76.3141 32.1462C78.8251 32.1462 80.423 30.1648 80.423 27.0055C80.423 23.8463 78.8251 21.874 76.2959 21.874ZM75.7389 30.384C74.0953 30.384 73.0635 29.0874 73.0635 27.0147C73.0635 24.9328 74.0953 23.6363 75.748 23.6363C77.4098 23.6363 78.4051 24.9054 78.4051 27.0055C78.4051 29.1148 77.4098 30.384 75.7389 30.384Z" fill="white"/>
<path d="M56.6183 31.9819H58.8707L53.94 18.3255H51.6592L46.7285 31.9819H48.9052L50.1639 28.3572H55.369L56.6183 31.9819ZM52.6908 20.805H52.8516L54.8296 26.578H50.7033L52.6908 20.805Z" fill="white"/>
<path d="M48.0478 8.02416V14.6121H50.4264C52.3895 14.6121 53.5263 13.4022 53.5263 11.2976C53.5263 9.22487 52.3804 8.02416 50.4264 8.02416H48.0478ZM49.0704 8.95551H50.3122C51.6773 8.95551 52.4854 9.82294 52.4854 11.3113C52.4854 12.8224 51.691 13.6807 50.3122 13.6807H49.0704V8.95551Z" fill="white"/>
<path d="M57.0079 14.7079C58.4597 14.7079 59.35 13.7355 59.35 12.1239C59.35 10.5214 58.4551 9.54445 57.0079 9.54445C55.5561 9.54445 54.6613 10.5214 54.6613 12.1239C54.6613 13.7355 55.5515 14.7079 57.0079 14.7079ZM57.0079 13.8359C56.1542 13.8359 55.6748 13.2105 55.6748 12.1239C55.6748 11.0465 56.1542 10.4164 57.0079 10.4164C57.8571 10.4164 58.341 11.0465 58.341 12.1239C58.341 13.2059 57.8571 13.8359 57.0079 13.8359Z" fill="white"/>
<path d="M66.9313 9.64032H65.9497L65.064 13.4342H64.9864L63.9638 9.64032H63.0233L62.0006 13.4342H61.9276L61.0373 9.64032H60.0421L61.4117 14.6121H62.4207L63.4433 10.9506H63.5209L64.5482 14.6121H65.5662L66.9313 9.64032Z" fill="white"/>
<path d="M68.0617 14.6121H69.0433V11.7039C69.0433 10.9278 69.5044 10.4438 70.2303 10.4438C70.9562 10.4438 71.3032 10.841 71.3032 11.64V14.6121H72.2847V11.3934C72.2847 10.211 71.673 9.54445 70.5636 9.54445C69.8148 9.54445 69.3218 9.87772 69.0798 10.4301H69.0067V9.64032H68.0617V14.6121Z" fill="white"/>
<path d="M73.8306 14.6121H74.8122V7.70001H73.8306V14.6121Z" fill="white"/>
<path d="M78.5038 14.7079C79.9556 14.7079 80.8458 13.7355 80.8458 12.1239C80.8458 10.5214 79.951 9.54445 78.5038 9.54445C77.052 9.54445 76.1571 10.5214 76.1571 12.1239C76.1571 13.7355 77.0474 14.7079 78.5038 14.7079ZM78.5038 13.8359C77.65 13.8359 77.1707 13.2105 77.1707 12.1239C77.1707 11.0465 77.65 10.4164 78.5038 10.4164C79.3529 10.4164 79.8369 11.0465 79.8369 12.1239C79.8369 13.2059 79.3529 13.8359 78.5038 13.8359Z" fill="white"/>
<path d="M83.7704 13.8679C83.2363 13.8679 82.8482 13.6077 82.8482 13.1603C82.8482 12.722 83.1587 12.4891 83.8435 12.4435L85.0579 12.3659V12.7813C85.0579 13.3977 84.51 13.8679 83.7704 13.8679ZM83.5193 14.6943C84.1722 14.6943 84.7155 14.4112 85.0122 13.9136H85.0898V14.6121H86.0349V11.2154C86.0349 10.1653 85.3318 9.54445 84.0854 9.54445C82.9578 9.54445 82.1543 10.0923 82.0538 10.946H83.0034C83.113 10.5945 83.4919 10.3936 84.0398 10.3936C84.7109 10.3936 85.0579 10.6904 85.0579 11.2154V11.6445L83.7111 11.7222C82.5286 11.7952 81.8621 12.3111 81.8621 13.2059C81.8621 14.1144 82.5606 14.6943 83.5193 14.6943Z" fill="white"/>
<path d="M89.3658 14.6943C90.0506 14.6943 90.6305 14.3701 90.9272 13.8268H91.0048V14.6121H91.9453V7.70001H90.9637V10.4301H90.8907C90.6213 9.88229 90.0461 9.55814 89.3658 9.55814C88.1103 9.55814 87.3022 10.5534 87.3022 12.1239C87.3022 13.699 88.1012 14.6943 89.3658 14.6943ZM89.6443 10.4393C90.4661 10.4393 90.982 11.0921 90.982 12.1285C90.982 13.1694 90.4707 13.8131 89.6443 13.8131C88.8134 13.8131 88.3158 13.1785 88.3158 12.1239C88.3158 11.0784 88.818 10.4393 89.6443 10.4393Z" fill="white"/>
<path d="M98.3104 14.7079C99.7622 14.7079 100.652 13.7355 100.652 12.1239C100.652 10.5214 99.7577 9.54445 98.3104 9.54445C96.8586 9.54445 95.9638 10.5214 95.9638 12.1239C95.9638 13.7355 96.854 14.7079 98.3104 14.7079ZM98.3104 13.8359C97.4567 13.8359 96.9773 13.2105 96.9773 12.1239C96.9773 11.0465 97.4567 10.4164 98.3104 10.4164C99.1596 10.4164 99.6435 11.0465 99.6435 12.1239C99.6435 13.2059 99.1596 13.8359 98.3104 13.8359Z" fill="white"/>
<path d="M101.952 14.6121H102.933V11.7039C102.933 10.9278 103.394 10.4438 104.12 10.4438C104.846 10.4438 105.193 10.841 105.193 11.64V14.6121H106.175V11.3934C106.175 10.211 105.563 9.54445 104.454 9.54445C103.705 9.54445 103.212 9.87772 102.97 10.4301H102.897V9.64032H101.952V14.6121Z" fill="white"/>
<path d="M110.696 8.40309V9.66315H109.906V10.4895H110.696V13.2972C110.696 14.256 111.129 14.6395 112.22 14.6395C112.412 14.6395 112.595 14.6166 112.755 14.5892V13.772C112.618 13.7857 112.531 13.7949 112.38 13.7949C111.892 13.7949 111.677 13.5666 111.677 13.0461V10.4895H112.755V9.66315H111.677V8.40309H110.696Z" fill="white"/>
<path d="M114.072 14.6121H115.054V11.7085C115.054 10.9552 115.501 10.4484 116.305 10.4484C116.999 10.4484 117.368 10.8502 117.368 11.6445V14.6121H118.35V11.4026C118.35 10.2201 117.697 9.54901 116.638 9.54901C115.889 9.54901 115.364 9.88229 115.122 10.4393H115.045V7.70001H114.072V14.6121Z" fill="white"/>
<path d="M121.891 10.3799C122.617 10.3799 123.092 10.8867 123.114 11.6674H120.603C120.658 10.8912 121.165 10.3799 121.891 10.3799ZM123.11 13.2698C122.927 13.6579 122.521 13.8725 121.927 13.8725C121.142 13.8725 120.635 13.3201 120.603 12.4481V12.3933H124.114V12.0509C124.114 10.4895 123.279 9.54445 121.895 9.54445C120.494 9.54445 119.604 10.5534 119.604 12.1422C119.604 13.7309 120.476 14.7079 121.9 14.7079C123.037 14.7079 123.831 14.1601 124.055 13.2698H123.11Z" fill="white"/>
<path d="M36.0768 20.7736C36.1006 18.9244 37.0936 17.1748 38.669 16.2063C37.6752 14.7869 36.0106 13.887 34.2787 13.8328C32.4315 13.639 30.6408 14.9382 29.6995 14.9382C28.74 14.9382 27.2908 13.8521 25.7302 13.8842C23.696 13.9499 21.7996 15.1064 20.81 16.8849C18.6826 20.5681 20.2694 25.9813 22.3073 28.9585C23.3269 30.4164 24.5185 32.0449 26.0777 31.9872C27.6034 31.9239 28.1733 31.0142 30.015 31.0142C31.8397 31.0142 32.3743 31.9872 33.9651 31.9505C35.6023 31.9239 36.6339 30.4861 37.6177 29.0144C38.3503 27.9756 38.914 26.8275 39.2879 25.6126C37.3639 24.7989 36.079 22.8626 36.0768 20.7736Z" fill="white"/>
<path d="M33.0719 11.8748C33.9646 10.8032 34.4044 9.42581 34.2979 8.03516C32.9341 8.1784 31.6743 8.83021 30.7696 9.86073C29.8849 10.8676 29.4245 12.2208 29.5115 13.5583C30.8758 13.5723 32.217 12.9382 33.0719 11.8748Z" fill="white"/>
</svg>
