<svg width="16" height="17" viewBox="0 0 16 17" fill="none" xmlns="http://www.w3.org/2000/svg">
<circle cx="7.61677" cy="8.55451" r="7.61384" fill="white"/>
<path d="M4.68848 6.13871C4.68848 5.84745 4.81703 5.56813 5.04586 5.36218C5.27468 5.15623 5.58503 5.04053 5.90864 5.04053H9.32511C9.64872 5.04053 9.95907 5.15623 10.1879 5.36218C10.4167 5.56813 10.5453 5.84745 10.5453 6.13871V11.8492C10.5452 11.8897 10.5328 11.9294 10.5092 11.9639C10.4857 11.9985 10.452 12.0264 10.4119 12.0448C10.3718 12.0632 10.3268 12.0712 10.282 12.068C10.2371 12.0648 10.1941 12.0505 10.1578 12.0267L7.61688 10.3636L5.076 12.0267C5.03961 12.0505 4.99661 12.0648 4.95176 12.068C4.9069 12.0712 4.86194 12.0632 4.82184 12.0448C4.78174 12.0264 4.74806 11.9985 4.72453 11.9639C4.70099 11.9294 4.68852 11.8897 4.68848 11.8492V6.13871ZM5.90864 5.4798C5.71448 5.4798 5.52827 5.54922 5.39097 5.67279C5.25367 5.79636 5.17654 5.96395 5.17654 6.13871V11.4179L7.47338 9.91469C7.51509 9.8874 7.56532 9.87271 7.61688 9.87271C7.66843 9.87271 7.71867 9.8874 7.76037 9.91469L10.0572 11.4179V6.13871C10.0572 5.96395 9.98008 5.79636 9.84278 5.67279C9.70549 5.54922 9.51927 5.4798 9.32511 5.4798H5.90864Z" fill="#353237"/>
</svg>
