<svg width="313" height="44" viewBox="0 0 313 44" fill="none" xmlns="http://www.w3.org/2000/svg">
<rect width="148.5" height="44" rx="5" fill="black"/>
<path d="M98.5093 19.5643V22.0844H96.9297V23.7371H98.5093V29.3525C98.5093 31.27 99.3768 32.037 101.559 32.037C101.943 32.037 102.308 31.9914 102.627 31.9366V30.3021C102.353 30.3295 102.18 30.3478 101.879 30.3478C100.902 30.3478 100.472 29.8913 100.472 28.8503V23.7371H102.627V22.0844H100.472V19.5643H98.5093Z" fill="white"/>
<path d="M108.187 32.174C111.09 32.174 112.871 30.2291 112.871 27.0059C112.871 23.801 111.081 21.847 108.187 21.847C105.283 21.847 103.493 23.801 103.493 27.0059C103.493 30.2291 105.274 32.174 108.187 32.174ZM108.187 30.43C106.479 30.43 105.52 29.1791 105.52 27.0059C105.52 24.851 106.479 23.591 108.187 23.591C109.885 23.591 110.853 24.851 110.853 27.0059C110.853 29.1699 109.885 30.43 108.187 30.43Z" fill="white"/>
<path d="M114.394 31.9822H116.357V26.1111C116.357 24.7141 117.407 23.7736 118.896 23.7736C119.243 23.7736 119.827 23.8375 119.991 23.8923V21.9565C119.781 21.9018 119.407 21.8744 119.115 21.8744C117.818 21.8744 116.713 22.5866 116.43 23.5636H116.284V22.0387H114.394V31.9822Z" fill="white"/>
<path d="M124.866 23.5179C126.318 23.5179 127.267 24.5314 127.313 26.0928H122.291C122.4 24.5406 123.414 23.5179 124.866 23.5179ZM127.304 29.2978C126.938 30.0739 126.126 30.503 124.939 30.503C123.368 30.503 122.355 29.3982 122.291 27.6542V27.5446H129.312V26.8598C129.312 23.7371 127.642 21.847 124.875 21.847C122.072 21.847 120.291 23.8649 120.291 27.0424C120.291 30.22 122.035 32.174 124.884 32.174C127.158 32.174 128.746 31.0783 129.194 29.2978H127.304Z" fill="white"/>
<path d="M85.6354 28.3102C85.7868 30.7519 87.8216 32.3135 90.85 32.3135C94.0866 32.3135 96.1119 30.6762 96.1119 28.0642C96.1119 26.0105 94.9573 24.8749 92.156 24.2219L90.6513 23.8528C88.872 23.4364 88.1528 22.878 88.1528 21.9032C88.1528 20.6729 89.2695 19.8685 90.9446 19.8685C92.5346 19.8685 93.6324 20.654 93.8311 21.9127H95.8942C95.7712 19.613 93.7459 17.9946 90.973 17.9946C87.9919 17.9946 86.0045 19.613 86.0045 22.0452C86.0045 24.0515 87.1307 25.244 89.6008 25.8212L91.361 26.2471C93.1686 26.673 93.9636 27.2976 93.9636 28.3386C93.9636 29.55 92.7144 30.4302 91.0109 30.4302C89.1844 30.4302 87.9162 29.6068 87.7364 28.3102H85.6354Z" fill="white"/>
<path d="M65.2993 21.8744C63.948 21.8744 62.7792 22.55 62.1766 23.6823H62.0305V22.0387H60.1404V35.2876H62.1035V30.4756H62.2588C62.7792 31.5257 63.9023 32.1466 65.3176 32.1466C67.8286 32.1466 69.4265 30.1652 69.4265 27.0059C69.4265 23.8466 67.8286 21.8744 65.2993 21.8744ZM64.7424 30.3843C63.0988 30.3843 62.067 29.0877 62.067 27.015C62.067 24.9332 63.0988 23.6366 64.7515 23.6366C66.4133 23.6366 67.4086 24.9058 67.4086 27.0059C67.4086 29.1151 66.4133 30.3843 64.7424 30.3843Z" fill="white"/>
<path d="M76.2958 21.8744C74.9444 21.8744 73.7757 22.55 73.1731 23.6823H73.027V22.0387H71.1369V35.2876H73.1V30.4756H73.2552C73.7757 31.5257 74.8988 32.1466 76.3141 32.1466C78.8251 32.1466 80.423 30.1652 80.423 27.0059C80.423 23.8466 78.8251 21.8744 76.2958 21.8744ZM75.7388 30.3843C74.0953 30.3843 73.0635 29.0877 73.0635 27.015C73.0635 24.9332 74.0953 23.6366 75.748 23.6366C77.4098 23.6366 78.405 24.9058 78.405 27.0059C78.405 29.1151 77.4098 30.3843 75.7388 30.3843Z" fill="white"/>
<path d="M56.6182 31.9822H58.8706L53.9399 18.3259H51.6591L46.7285 31.9822H48.9051L50.1638 28.3576H55.369L56.6182 31.9822ZM52.6907 20.8054H52.8516L54.8295 26.5784H50.7033L52.6907 20.8054Z" fill="white"/>
<path d="M48.0478 8.02434V14.6123H50.4264C52.3895 14.6123 53.5263 13.4024 53.5263 11.2978C53.5263 9.22505 52.3804 8.02434 50.4264 8.02434H48.0478ZM49.0704 8.95569H50.3122C51.6773 8.95569 52.4854 9.82312 52.4854 11.3115C52.4854 12.8226 51.691 13.6809 50.3122 13.6809H49.0704V8.95569Z" fill="white"/>
<path d="M57.0079 14.7081C58.4597 14.7081 59.35 13.7357 59.35 12.1241C59.35 10.5216 58.4551 9.54463 57.0079 9.54463C55.5561 9.54463 54.6613 10.5216 54.6613 12.1241C54.6613 13.7357 55.5515 14.7081 57.0079 14.7081ZM57.0079 13.8361C56.1542 13.8361 55.6748 13.2107 55.6748 12.1241C55.6748 11.0467 56.1542 10.4166 57.0079 10.4166C57.8571 10.4166 58.341 11.0467 58.341 12.1241C58.341 13.2061 57.8571 13.8361 57.0079 13.8361Z" fill="white"/>
<path d="M66.9313 9.6405H65.9498L65.0641 13.4344H64.9864L63.9638 9.6405H63.0233L62.0007 13.4344H61.9276L61.0374 9.6405H60.0421L61.4117 14.6123H62.4207L63.4433 10.9508H63.5209L64.5482 14.6123H65.5663L66.9313 9.6405Z" fill="white"/>
<path d="M68.0617 14.6123H69.0433V11.7041C69.0433 10.928 69.5044 10.444 70.2303 10.444C70.9562 10.444 71.3032 10.8412 71.3032 11.6402V14.6123H72.2847V11.3936C72.2847 10.2112 71.673 9.54463 70.5636 9.54463C69.8148 9.54463 69.3218 9.87791 69.0798 10.4303H69.0068V9.6405H68.0617V14.6123Z" fill="white"/>
<path d="M73.8306 14.6123H74.8122V7.7002H73.8306V14.6123Z" fill="white"/>
<path d="M78.5038 14.7081C79.9556 14.7081 80.8458 13.7357 80.8458 12.1241C80.8458 10.5216 79.951 9.54463 78.5038 9.54463C77.052 9.54463 76.1571 10.5216 76.1571 12.1241C76.1571 13.7357 77.0474 14.7081 78.5038 14.7081ZM78.5038 13.8361C77.65 13.8361 77.1707 13.2107 77.1707 12.1241C77.1707 11.0467 77.65 10.4166 78.5038 10.4166C79.3529 10.4166 79.8369 11.0467 79.8369 12.1241C79.8369 13.2061 79.3529 13.8361 78.5038 13.8361Z" fill="white"/>
<path d="M83.7704 13.8681C83.2363 13.8681 82.8482 13.6079 82.8482 13.1604C82.8482 12.7222 83.1587 12.4893 83.8435 12.4437L85.0579 12.3661V12.7815C85.0579 13.3979 84.51 13.8681 83.7704 13.8681ZM83.5194 14.6944C84.1722 14.6944 84.7155 14.4114 85.0122 13.9137H85.0899V14.6123H86.0349V11.2156C86.0349 10.1655 85.3318 9.54463 84.0855 9.54463C82.9578 9.54463 82.1543 10.0925 82.0538 10.9462H83.0035C83.113 10.5947 83.492 10.3938 84.0398 10.3938C84.7109 10.3938 85.0579 10.6906 85.0579 11.2156V11.6447L83.7111 11.7223C82.5287 11.7954 81.8621 12.3113 81.8621 13.2061C81.8621 14.1146 82.5606 14.6944 83.5194 14.6944Z" fill="white"/>
<path d="M89.3658 14.6944C90.0507 14.6944 90.6305 14.3703 90.9272 13.827H91.0048V14.6123H91.9453V7.7002H90.9637V10.4303H90.8907C90.6213 9.88247 90.0461 9.55833 89.3658 9.55833C88.1103 9.55833 87.3023 10.5536 87.3023 12.1241C87.3023 13.6992 88.1012 14.6944 89.3658 14.6944ZM89.6443 10.4395C90.4661 10.4395 90.982 11.0923 90.982 12.1287C90.982 13.1696 90.4707 13.8133 89.6443 13.8133C88.8134 13.8133 88.3158 13.1787 88.3158 12.1241C88.3158 11.0786 88.818 10.4395 89.6443 10.4395Z" fill="white"/>
<path d="M98.3104 14.7081C99.7622 14.7081 100.652 13.7357 100.652 12.1241C100.652 10.5216 99.7577 9.54463 98.3104 9.54463C96.8586 9.54463 95.9638 10.5216 95.9638 12.1241C95.9638 13.7357 96.8541 14.7081 98.3104 14.7081ZM98.3104 13.8361C97.4567 13.8361 96.9773 13.2107 96.9773 12.1241C96.9773 11.0467 97.4567 10.4166 98.3104 10.4166C99.1596 10.4166 99.6435 11.0467 99.6435 12.1241C99.6435 13.2061 99.1596 13.8361 98.3104 13.8361Z" fill="white"/>
<path d="M101.952 14.6123H102.933V11.7041C102.933 10.928 103.394 10.444 104.12 10.444C104.846 10.444 105.193 10.8412 105.193 11.6402V14.6123H106.175V11.3936C106.175 10.2112 105.563 9.54463 104.454 9.54463C103.705 9.54463 103.212 9.87791 102.97 10.4303H102.897V9.6405H101.952V14.6123Z" fill="white"/>
<path d="M110.696 8.40327V9.66333H109.906V10.4897H110.696V13.2974C110.696 14.2562 111.129 14.6396 112.22 14.6396C112.412 14.6396 112.595 14.6168 112.755 14.5894V13.7722C112.618 13.7859 112.531 13.795 112.38 13.795C111.892 13.795 111.677 13.5668 111.677 13.0463V10.4897H112.755V9.66333H111.677V8.40327H110.696Z" fill="white"/>
<path d="M114.072 14.6123H115.054V11.7086C115.054 10.9553 115.501 10.4486 116.305 10.4486C116.999 10.4486 117.368 10.8503 117.368 11.6447V14.6123H118.35V11.4028C118.35 10.2203 117.697 9.54919 116.638 9.54919C115.889 9.54919 115.364 9.88247 115.122 10.4395H115.045V7.7002H114.072V14.6123Z" fill="white"/>
<path d="M121.891 10.3801C122.617 10.3801 123.092 10.8869 123.114 11.6676H120.603C120.658 10.8914 121.165 10.3801 121.891 10.3801ZM123.11 13.27C122.927 13.6581 122.521 13.8727 121.927 13.8727C121.142 13.8727 120.635 13.3202 120.603 12.4482V12.3935H124.114V12.051C124.114 10.4897 123.279 9.54463 121.895 9.54463C120.494 9.54463 119.604 10.5536 119.604 12.1424C119.604 13.7311 120.476 14.7081 121.9 14.7081C123.037 14.7081 123.831 14.1603 124.055 13.27H123.11Z" fill="white"/>
<path d="M36.0768 20.7736C36.1006 18.9245 37.0937 17.1748 38.669 16.2063C37.6752 14.7869 36.0106 13.887 34.2787 13.8328C32.4316 13.639 30.6408 14.9382 29.6995 14.9382C28.74 14.9382 27.2908 13.8521 25.7302 13.8842C23.696 13.9499 21.7996 15.1064 20.81 16.8849C18.6826 20.5681 20.2694 25.9813 22.3073 28.9585C23.3269 30.4164 24.5185 32.0449 26.0777 31.9872C27.6035 31.9239 28.1733 31.0142 30.015 31.0142C31.8397 31.0142 32.3743 31.9872 33.9651 31.9505C35.6023 31.9239 36.6339 30.4861 37.6177 29.0144C38.3503 27.9756 38.914 26.8275 39.288 25.6126C37.3639 24.7989 36.079 22.8626 36.0768 20.7736Z" fill="white"/>
<path d="M33.072 11.8748C33.9646 10.8032 34.4044 9.42581 34.2979 8.03516C32.9341 8.1784 31.6743 8.83021 30.7696 9.86073C29.8849 10.8676 29.4245 12.2208 29.5115 13.5583C30.8758 13.5723 32.217 12.9382 33.072 11.8748Z" fill="white"/>
<rect x="164" width="148.5" height="44" rx="5" fill="black"/>
<path d="M238.95 23.9259C236.363 23.9259 234.254 25.8938 234.254 28.6042C234.254 31.2981 236.363 33.2825 238.95 33.2825C241.538 33.2825 243.647 31.2981 243.647 28.6042C243.646 25.8938 241.537 23.9259 238.95 23.9259ZM238.95 31.4411C237.532 31.4411 236.31 30.2718 236.31 28.6053C236.31 26.9212 237.533 25.7695 238.95 25.7695C240.368 25.7695 241.59 26.9212 241.59 28.6053C241.59 30.2707 240.368 31.4411 238.95 31.4411ZM228.704 23.9259C226.117 23.9259 224.009 25.8938 224.009 28.6042C224.009 31.2981 226.117 33.2825 228.704 33.2825C231.293 33.2825 233.401 31.2981 233.401 28.6042C233.401 25.8938 231.293 23.9259 228.704 23.9259ZM228.704 31.4411C227.287 31.4411 226.064 30.2718 226.064 28.6053C226.064 26.9212 227.288 25.7695 228.704 25.7695C230.122 25.7695 231.344 26.9212 231.344 28.6053C231.346 30.2707 230.122 31.4411 228.704 31.4411ZM216.519 25.3625V27.3469H221.268C221.127 28.4634 220.755 29.2785 220.187 29.845C219.496 30.5358 218.415 31.2981 216.519 31.2981C213.595 31.2981 211.309 28.9408 211.309 26.017C211.309 23.0932 213.595 20.7359 216.519 20.7359C218.096 20.7359 219.248 21.3563 220.098 22.1538L221.498 20.7535C220.31 19.6194 218.734 18.7515 216.519 18.7515C212.514 18.7515 209.146 22.0119 209.146 26.017C209.146 30.0221 212.514 33.2825 216.519 33.2825C218.68 33.2825 220.311 32.573 221.586 31.2442C222.898 29.933 223.306 28.0894 223.306 26.6011C223.306 26.1413 223.27 25.7156 223.199 25.3614H216.519V25.3625ZM266.357 26.9036C265.968 25.8586 264.78 23.9259 262.352 23.9259C259.942 23.9259 257.939 25.8223 257.939 28.6042C257.939 31.2266 259.925 33.2825 262.582 33.2825C264.726 33.2825 265.967 31.9713 266.482 31.209L264.887 30.1453C264.355 30.9252 263.628 31.4389 262.582 31.4389C261.537 31.4389 260.793 30.9604 260.314 30.021L266.57 27.4338L266.357 26.9036ZM259.977 28.4634C259.925 26.655 261.378 25.7343 262.424 25.7343C263.239 25.7343 263.93 26.1424 264.161 26.7265L259.977 28.4634ZM254.892 32.9998H256.947V19.2487H254.892V32.9998ZM251.524 24.972H251.454C250.993 24.422 250.106 23.9259 248.991 23.9259C246.651 23.9259 244.507 25.9818 244.507 28.6229C244.507 31.2453 246.651 33.2836 248.991 33.2836C250.107 33.2836 250.993 32.7875 251.454 32.221H251.524V32.8942C251.524 34.6839 250.567 35.6409 249.026 35.6409C247.767 35.6409 246.988 34.7378 246.669 33.9755L244.879 34.7202C245.393 35.9599 246.757 37.4845 249.026 37.4845C251.436 37.4845 253.474 36.0666 253.474 32.6104V24.2108H251.525V24.972H251.524ZM249.168 31.4411C247.75 31.4411 246.563 30.2531 246.563 28.6229C246.563 26.974 247.75 25.7695 249.168 25.7695C250.567 25.7695 251.666 26.974 251.666 28.6229C251.666 30.2531 250.567 31.4411 249.168 31.4411ZM275.987 19.2487H271.069V32.9998H273.12V27.7902H275.986C278.261 27.7902 280.498 26.1435 280.498 23.52C280.498 20.8965 278.262 19.2487 275.987 19.2487ZM276.04 25.8762H273.12V21.1627H276.04C277.574 21.1627 278.445 22.4332 278.445 23.52C278.445 24.5848 277.574 25.8762 276.04 25.8762ZM288.725 23.9017C287.239 23.9017 285.7 24.5562 285.063 26.0071L286.885 26.7672C287.274 26.0071 288 25.7585 288.76 25.7585C289.822 25.7585 290.901 26.3954 290.918 27.5273V27.6692C290.546 27.4569 289.75 27.139 288.778 27.139C286.814 27.139 284.814 28.2181 284.814 30.2344C284.814 32.0747 286.425 33.2594 288.229 33.2594C289.608 33.2594 290.369 32.6401 290.847 31.9141H290.917V32.9756H292.899V27.7033C292.9 25.2635 291.077 23.9017 288.725 23.9017ZM288.476 31.4378C287.805 31.4378 286.867 31.1012 286.867 30.2696C286.867 29.2081 288.035 28.8011 289.044 28.8011C289.945 28.8011 290.37 28.9958 290.918 29.2609C290.759 30.5358 289.662 31.4378 288.476 31.4378ZM300.118 24.202L297.765 30.164H297.694L295.252 24.202H293.041L296.703 32.5345L294.615 37.1699H296.756L302.4 24.202H300.118ZM281.631 32.9998H283.682V19.2487H281.631V32.9998Z" fill="white"/>
<path d="M216.159 11.267C216.159 12.1888 215.886 12.9225 215.339 13.4703C214.719 14.1215 213.909 14.4471 212.915 14.4471C211.962 14.4471 211.152 14.1171 210.486 13.4571C209.82 12.796 209.486 11.9776 209.486 11.0008C209.486 10.0229 209.82 9.20452 210.486 8.54452C211.152 7.88342 211.962 7.55342 212.915 7.55342C213.388 7.55342 213.84 7.64582 214.269 7.82952C214.699 8.01432 215.044 8.25962 215.301 8.56652L214.721 9.14732C214.285 8.62482 213.683 8.36412 212.914 8.36412C212.219 8.36412 211.618 8.60832 211.111 9.09672C210.604 9.58512 210.351 10.2198 210.351 10.9997C210.351 11.7796 210.604 12.4143 211.111 12.9027C211.618 13.3911 212.219 13.6353 212.914 13.6353C213.651 13.6353 214.266 13.39 214.758 12.8983C215.077 12.5782 215.261 12.1327 215.311 11.5618H212.914V10.7687H216.112C216.145 10.9414 216.159 11.1075 216.159 11.267Z" fill="white"/>
<path d="M221.23 8.51048H218.225V10.6027H220.935V11.3958H218.225V13.488H221.23V14.2998H217.377V7.69978H221.23V8.51048Z" fill="white"/>
<path d="M224.806 14.2998H223.958V8.51048H222.114V7.69978H226.65V8.51048H224.806V14.2998Z" fill="white"/>
<path d="M229.931 14.2998V7.69978H230.779V14.2998H229.931Z" fill="white"/>
<path d="M234.54 14.2998H233.692V8.51048H231.848V7.69978H236.384V8.51048H234.54V14.2998Z" fill="white"/>
<path d="M244.969 13.4473C244.32 14.1139 243.514 14.4472 242.549 14.4472C241.584 14.4472 240.778 14.1139 240.13 13.4473C239.481 12.7807 239.158 11.9645 239.158 10.9998C239.158 10.0351 239.481 9.21887 240.13 8.55227C240.778 7.88567 241.584 7.55127 242.549 7.55127C243.508 7.55127 244.313 7.88677 244.964 8.55667C245.616 9.22657 245.941 10.0406 245.941 10.9998C245.941 11.9645 245.617 12.7807 244.969 13.4473ZM240.756 12.894C241.244 13.389 241.842 13.6354 242.549 13.6354C243.256 13.6354 243.855 13.3879 244.342 12.894C244.83 12.399 245.076 11.7676 245.076 10.9998C245.076 10.232 244.83 9.60057 244.342 9.10557C243.855 8.61057 243.256 8.36417 242.549 8.36417C241.842 8.36417 241.244 8.61167 240.756 9.10557C240.269 9.60057 240.023 10.232 240.023 10.9998C240.023 11.7676 240.269 12.399 240.756 12.894Z" fill="white"/>
<path d="M247.132 14.2998V7.69978H248.163L251.371 12.8335H251.407L251.371 11.5619V7.69978H252.219V14.2998H251.334L247.977 8.91638H247.941L247.977 10.188V14.2998H247.132Z" fill="white"/>
<path d="M216.159 11.267C216.159 12.1888 215.886 12.9225 215.339 13.4703C214.719 14.1215 213.909 14.4471 212.915 14.4471C211.962 14.4471 211.152 14.1171 210.486 13.4571C209.82 12.796 209.486 11.9776 209.486 11.0008C209.486 10.0229 209.82 9.20452 210.486 8.54452C211.152 7.88342 211.962 7.55342 212.915 7.55342C213.388 7.55342 213.84 7.64582 214.269 7.82952C214.699 8.01432 215.044 8.25962 215.301 8.56652L214.721 9.14732C214.285 8.62482 213.683 8.36412 212.914 8.36412C212.219 8.36412 211.618 8.60832 211.111 9.09672C210.604 9.58512 210.351 10.2198 210.351 10.9997C210.351 11.7796 210.604 12.4143 211.111 12.9027C211.618 13.3911 212.219 13.6353 212.914 13.6353C213.651 13.6353 214.266 13.39 214.758 12.8983C215.077 12.5782 215.261 12.1327 215.311 11.5618H212.914V10.7687H216.112C216.145 10.9414 216.159 11.1075 216.159 11.267Z" stroke="white" stroke-width="0.2" stroke-miterlimit="10"/>
<path d="M221.23 8.51048H218.225V10.6027H220.935V11.3958H218.225V13.488H221.23V14.2998H217.377V7.69978H221.23V8.51048Z" stroke="white" stroke-width="0.2" stroke-miterlimit="10"/>
<path d="M224.806 14.2998H223.958V8.51048H222.114V7.69978H226.65V8.51048H224.806V14.2998Z" stroke="white" stroke-width="0.2" stroke-miterlimit="10"/>
<path d="M229.931 14.2998V7.69978H230.779V14.2998H229.931Z" stroke="white" stroke-width="0.2" stroke-miterlimit="10"/>
<path d="M234.54 14.2998H233.692V8.51048H231.848V7.69978H236.384V8.51048H234.54V14.2998Z" stroke="white" stroke-width="0.2" stroke-miterlimit="10"/>
<path d="M244.969 13.4473C244.32 14.1139 243.514 14.4472 242.549 14.4472C241.584 14.4472 240.778 14.1139 240.13 13.4473C239.481 12.7807 239.158 11.9645 239.158 10.9998C239.158 10.0351 239.481 9.21887 240.13 8.55227C240.778 7.88567 241.584 7.55127 242.549 7.55127C243.508 7.55127 244.313 7.88677 244.964 8.55667C245.616 9.22657 245.941 10.0406 245.941 10.9998C245.941 11.9645 245.617 12.7807 244.969 13.4473ZM240.756 12.894C241.244 13.389 241.842 13.6354 242.549 13.6354C243.256 13.6354 243.855 13.3879 244.342 12.894C244.83 12.399 245.076 11.7676 245.076 10.9998C245.076 10.232 244.83 9.60057 244.342 9.10557C243.855 8.61057 243.256 8.36417 242.549 8.36417C241.842 8.36417 241.244 8.61167 240.756 9.10557C240.269 9.60057 240.023 10.232 240.023 10.9998C240.023 11.7676 240.269 12.399 240.756 12.894Z" stroke="white" stroke-width="0.2" stroke-miterlimit="10"/>
<path d="M247.132 14.2998V7.69978H248.163L251.371 12.8335H251.407L251.371 11.5619V7.69978H252.219V14.2998H251.334L247.977 8.91638H247.941L247.977 10.188V14.2998H247.132Z" stroke="white" stroke-width="0.2" stroke-miterlimit="10"/>
<g filter="url(#filter0_ii_0_32)">
<path d="M175.479 8.29124C175.159 8.63004 174.97 9.15584 174.97 9.83674V34.1643C174.97 34.8463 175.159 35.371 175.479 35.7098L175.56 35.789L189.188 22.1611V22.0005V21.8399L175.56 8.21094L175.479 8.29124Z" fill="url(#paint0_linear_0_32)"/>
<path d="M193.73 26.7047L189.188 22.1606V22V21.8394L193.731 17.2964L193.834 17.3547L199.216 20.4127C200.753 21.2861 200.753 22.715 199.216 23.5895L193.834 26.6475L193.73 26.7047Z" fill="url(#paint1_linear_0_32)"/>
<g filter="url(#filter1_i_0_32)">
<path d="M193.833 26.6474L189.187 22.001L175.478 35.7103C175.984 36.2471 176.822 36.3131 177.764 35.7785L193.833 26.6474Z" fill="url(#paint2_linear_0_32)"/>
</g>
<path d="M193.833 17.3542L177.764 8.22417C176.822 7.68847 175.984 7.75558 175.478 8.29238L189.188 22.0017L193.833 17.3542Z" fill="url(#paint3_linear_0_32)"/>
</g>
<defs>
<filter id="filter0_ii_0_32" x="174.97" y="7.85449" width="25.3989" height="28.2935" filterUnits="userSpaceOnUse" color-interpolation-filters="sRGB">
<feFlood flood-opacity="0" result="BackgroundImageFix"/>
<feBlend mode="normal" in="SourceGraphic" in2="BackgroundImageFix" result="shape"/>
<feColorMatrix in="SourceAlpha" type="matrix" values="0 0 0 0 0 0 0 0 0 0 0 0 0 0 0 0 0 0 127 0" result="hardAlpha"/>
<feOffset dy="-0.15"/>
<feComposite in2="hardAlpha" operator="arithmetic" k2="-1" k3="1"/>
<feColorMatrix type="matrix" values="0 0 0 0 0 0 0 0 0 0 0 0 0 0 0 0 0 0 0.12 0"/>
<feBlend mode="normal" in2="shape" result="effect1_innerShadow_0_32"/>
<feColorMatrix in="SourceAlpha" type="matrix" values="0 0 0 0 0 0 0 0 0 0 0 0 0 0 0 0 0 0 127 0" result="hardAlpha"/>
<feOffset dy="0.15"/>
<feComposite in2="hardAlpha" operator="arithmetic" k2="-1" k3="1"/>
<feColorMatrix type="matrix" values="0 0 0 0 1 0 0 0 0 1 0 0 0 0 1 0 0 0 0.25 0"/>
<feBlend mode="normal" in2="effect1_innerShadow_0_32" result="effect2_innerShadow_0_32"/>
</filter>
<filter id="filter1_i_0_32" x="175.478" y="22.001" width="18.3546" height="14.147" filterUnits="userSpaceOnUse" color-interpolation-filters="sRGB">
<feFlood flood-opacity="0" result="BackgroundImageFix"/>
<feBlend mode="normal" in="SourceGraphic" in2="BackgroundImageFix" result="shape"/>
<feColorMatrix in="SourceAlpha" type="matrix" values="0 0 0 0 0 0 0 0 0 0 0 0 0 0 0 0 0 0 127 0" result="hardAlpha"/>
<feOffset dy="-0.15"/>
<feComposite in2="hardAlpha" operator="arithmetic" k2="-1" k3="1"/>
<feColorMatrix type="matrix" values="0 0 0 0 0 0 0 0 0 0 0 0 0 0 0 0 0 0 0.08 0"/>
<feBlend mode="normal" in2="shape" result="effect1_innerShadow_0_32"/>
</filter>
<linearGradient id="paint0_linear_0_32" x1="187.98" y1="9.57934" x2="169.52" y2="28.0395" gradientUnits="userSpaceOnUse">
<stop stop-color="#00A0FF"/>
<stop offset="0.0066" stop-color="#00A1FF"/>
<stop offset="0.2601" stop-color="#00BEFF"/>
<stop offset="0.5122" stop-color="#00D2FF"/>
<stop offset="0.7604" stop-color="#00DFFF"/>
<stop offset="1" stop-color="#00E3FF"/>
</linearGradient>
<linearGradient id="paint1_linear_0_32" x1="201.216" y1="22" x2="174.601" y2="22" gradientUnits="userSpaceOnUse">
<stop stop-color="#FFE000"/>
<stop offset="0.4087" stop-color="#FFBD00"/>
<stop offset="0.7754" stop-color="#FFA500"/>
<stop offset="1" stop-color="#FF9C00"/>
</linearGradient>
<linearGradient id="paint2_linear_0_32" x1="191.31" y1="24.5243" x2="166.275" y2="49.5586" gradientUnits="userSpaceOnUse">
<stop stop-color="#FF3A44"/>
<stop offset="1" stop-color="#C31162"/>
</linearGradient>
<linearGradient id="paint3_linear_0_32" x1="172.026" y1="0.193955" x2="183.205" y2="11.3725" gradientUnits="userSpaceOnUse">
<stop stop-color="#32A071"/>
<stop offset="0.0685" stop-color="#2DA771"/>
<stop offset="0.4762" stop-color="#15CF74"/>
<stop offset="0.8009" stop-color="#06E775"/>
<stop offset="1" stop-color="#00F076"/>
</linearGradient>
</defs>
</svg>
