<svg width="102" height="14" viewBox="0 0 102 14" fill="none" xmlns="http://www.w3.org/2000/svg">
<path d="M7 0L8.85152 4.4516L13.6574 4.83688L9.99583 7.9734L11.1145 12.6631L7 10.15L2.8855 12.6631L4.00417 7.9734L0.342604 4.83688L5.14848 4.4516L7 0Z" fill="#FABD20"/>
<path d="M29 0L30.8515 4.4516L35.6574 4.83688L31.9958 7.9734L33.1145 12.6631L29 10.15L24.8855 12.6631L26.0042 7.9734L22.3426 4.83688L27.1485 4.4516L29 0Z" fill="#FABD20"/>
<path d="M51 0L52.8515 4.4516L57.6574 4.83688L53.9958 7.9734L55.1145 12.6631L51 10.15L46.8855 12.6631L48.0042 7.9734L44.3426 4.83688L49.1485 4.4516L51 0Z" fill="#FABD20"/>
<path d="M73 0L74.8515 4.4516L79.6574 4.83688L75.9958 7.9734L77.1145 12.6631L73 10.15L68.8855 12.6631L70.0042 7.9734L66.3426 4.83688L71.1485 4.4516L73 0Z" fill="#FABD20"/>
<path opacity="0.7" d="M95 0L96.8515 4.4516L101.657 4.83688L97.9958 7.9734L99.1145 12.6631L95 10.15L90.8855 12.6631L92.0042 7.9734L88.3426 4.83688L93.1485 4.4516L95 0Z" fill="#FABD20"/>
</svg>
