<svg width="313" height="44" viewBox="0 0 313 44" fill="none" xmlns="http://www.w3.org/2000/svg">
<rect width="148.5" height="44" rx="5" fill="black"/>
<path d="M98.5094 19.5639V22.084H96.9298V23.7367H98.5094V29.3522C98.5094 31.2697 99.3768 32.0366 101.559 32.0366C101.943 32.0366 102.308 31.991 102.627 31.9362V30.3018C102.353 30.3292 102.18 30.3474 101.879 30.3474C100.902 30.3474 100.473 29.8909 100.473 28.85V23.7367H102.627V22.084H100.473V19.5639H98.5094Z" fill="white"/>
<path d="M108.187 32.1736C111.09 32.1736 112.871 30.2287 112.871 27.0055C112.871 23.8006 111.081 21.8466 108.187 21.8466C105.283 21.8466 103.493 23.8006 103.493 27.0055C103.493 30.2287 105.274 32.1736 108.187 32.1736ZM108.187 30.4296C106.479 30.4296 105.52 29.1787 105.52 27.0055C105.52 24.8507 106.479 23.5906 108.187 23.5906C109.885 23.5906 110.853 24.8507 110.853 27.0055C110.853 29.1696 109.885 30.4296 108.187 30.4296Z" fill="white"/>
<path d="M114.394 31.9819H116.357V26.1107C116.357 24.7137 117.407 23.7732 118.896 23.7732C119.243 23.7732 119.827 23.8371 119.991 23.8919V21.9562C119.781 21.9014 119.407 21.874 119.115 21.874C117.818 21.874 116.713 22.5862 116.43 23.5632H116.284V22.0384H114.394V31.9819Z" fill="white"/>
<path d="M124.866 23.5176C126.318 23.5176 127.267 24.5311 127.313 26.0925H122.291C122.4 24.5402 123.414 23.5176 124.866 23.5176ZM127.304 29.2974C126.939 30.0735 126.126 30.5027 124.939 30.5027C123.368 30.5027 122.355 29.3978 122.291 27.6538V27.5443H129.313V26.8594C129.313 23.7367 127.642 21.8466 124.875 21.8466C122.072 21.8466 120.291 23.8645 120.291 27.0421C120.291 30.2196 122.035 32.1736 124.884 32.1736C127.158 32.1736 128.746 31.0779 129.194 29.2974H127.304Z" fill="white"/>
<path d="M85.6355 28.3099C85.7869 30.7516 87.8216 32.3131 90.8501 32.3131C94.0867 32.3131 96.112 30.6758 96.112 28.0638C96.112 26.0102 94.9574 24.8745 92.1561 24.2215L90.6513 23.8524C88.8721 23.436 88.1529 22.8776 88.1529 21.9028C88.1529 20.6725 89.2696 19.8681 90.9447 19.8681C92.5346 19.8681 93.6324 20.6536 93.8312 21.9123H95.8943C95.7713 19.6126 93.746 17.9943 90.9731 17.9943C87.992 17.9943 86.0046 19.6126 86.0046 22.0448C86.0046 24.0511 87.1308 25.2436 89.6008 25.8209L91.3611 26.2468C93.1687 26.6726 93.9637 27.2972 93.9637 28.3383C93.9637 29.5496 92.7144 30.4298 91.0109 30.4298C89.1844 30.4298 87.9163 29.6064 87.7364 28.3099H85.6355Z" fill="white"/>
<path d="M65.2994 21.874C63.948 21.874 62.7793 22.5497 62.1766 23.6819H62.0305V22.0384H60.1405V35.2872H62.1036V30.4753H62.2588C62.7793 31.5253 63.9024 32.1462 65.3177 32.1462C67.8286 32.1462 69.4265 30.1648 69.4265 27.0055C69.4265 23.8463 67.8286 21.874 65.2994 21.874ZM64.7424 30.384C63.0989 30.384 62.0671 29.0874 62.0671 27.0147C62.0671 24.9328 63.0989 23.6363 64.7515 23.6363C66.4134 23.6363 67.4086 24.9054 67.4086 27.0055C67.4086 29.1148 66.4134 30.384 64.7424 30.384Z" fill="white"/>
<path d="M76.2959 21.874C74.9445 21.874 73.7758 22.5497 73.1731 23.6819H73.027V22.0384H71.1369V35.2872H73.1001V30.4753H73.2553C73.7758 31.5253 74.8988 32.1462 76.3141 32.1462C78.8251 32.1462 80.423 30.1648 80.423 27.0055C80.423 23.8463 78.8251 21.874 76.2959 21.874ZM75.7389 30.384C74.0953 30.384 73.0635 29.0874 73.0635 27.0147C73.0635 24.9328 74.0953 23.6363 75.748 23.6363C77.4098 23.6363 78.4051 24.9054 78.4051 27.0055C78.4051 29.1148 77.4098 30.384 75.7389 30.384Z" fill="white"/>
<path d="M56.6183 31.9819H58.8707L53.94 18.3255H51.6592L46.7285 31.9819H48.9052L50.1639 28.3572H55.369L56.6183 31.9819ZM52.6908 20.805H52.8516L54.8296 26.578H50.7033L52.6908 20.805Z" fill="white"/>
<path d="M48.0478 8.02416V14.6121H50.4264C52.3895 14.6121 53.5263 13.4022 53.5263 11.2976C53.5263 9.22487 52.3804 8.02416 50.4264 8.02416H48.0478ZM49.0704 8.95551H50.3122C51.6773 8.95551 52.4854 9.82294 52.4854 11.3113C52.4854 12.8224 51.691 13.6807 50.3122 13.6807H49.0704V8.95551Z" fill="white"/>
<path d="M57.0079 14.7079C58.4597 14.7079 59.35 13.7355 59.35 12.1239C59.35 10.5214 58.4551 9.54445 57.0079 9.54445C55.5561 9.54445 54.6613 10.5214 54.6613 12.1239C54.6613 13.7355 55.5515 14.7079 57.0079 14.7079ZM57.0079 13.8359C56.1542 13.8359 55.6748 13.2105 55.6748 12.1239C55.6748 11.0465 56.1542 10.4164 57.0079 10.4164C57.8571 10.4164 58.341 11.0465 58.341 12.1239C58.341 13.2059 57.8571 13.8359 57.0079 13.8359Z" fill="white"/>
<path d="M66.9313 9.64032H65.9497L65.064 13.4342H64.9864L63.9638 9.64032H63.0233L62.0006 13.4342H61.9276L61.0373 9.64032H60.0421L61.4117 14.6121H62.4207L63.4433 10.9506H63.5209L64.5482 14.6121H65.5662L66.9313 9.64032Z" fill="white"/>
<path d="M68.0617 14.6121H69.0433V11.7039C69.0433 10.9278 69.5044 10.4438 70.2303 10.4438C70.9562 10.4438 71.3032 10.841 71.3032 11.64V14.6121H72.2847V11.3934C72.2847 10.211 71.673 9.54445 70.5636 9.54445C69.8148 9.54445 69.3218 9.87772 69.0798 10.4301H69.0067V9.64032H68.0617V14.6121Z" fill="white"/>
<path d="M73.8306 14.6121H74.8122V7.70001H73.8306V14.6121Z" fill="white"/>
<path d="M78.5038 14.7079C79.9556 14.7079 80.8458 13.7355 80.8458 12.1239C80.8458 10.5214 79.951 9.54445 78.5038 9.54445C77.052 9.54445 76.1571 10.5214 76.1571 12.1239C76.1571 13.7355 77.0474 14.7079 78.5038 14.7079ZM78.5038 13.8359C77.65 13.8359 77.1707 13.2105 77.1707 12.1239C77.1707 11.0465 77.65 10.4164 78.5038 10.4164C79.3529 10.4164 79.8369 11.0465 79.8369 12.1239C79.8369 13.2059 79.3529 13.8359 78.5038 13.8359Z" fill="white"/>
<path d="M83.7704 13.8679C83.2363 13.8679 82.8482 13.6077 82.8482 13.1603C82.8482 12.722 83.1587 12.4891 83.8435 12.4435L85.0579 12.3659V12.7813C85.0579 13.3977 84.51 13.8679 83.7704 13.8679ZM83.5193 14.6943C84.1722 14.6943 84.7155 14.4112 85.0122 13.9136H85.0898V14.6121H86.0349V11.2154C86.0349 10.1653 85.3318 9.54445 84.0854 9.54445C82.9578 9.54445 82.1543 10.0923 82.0538 10.946H83.0034C83.113 10.5945 83.4919 10.3936 84.0398 10.3936C84.7109 10.3936 85.0579 10.6904 85.0579 11.2154V11.6445L83.7111 11.7222C82.5286 11.7952 81.8621 12.3111 81.8621 13.2059C81.8621 14.1144 82.5606 14.6943 83.5193 14.6943Z" fill="white"/>
<path d="M89.3658 14.6943C90.0506 14.6943 90.6304 14.3701 90.9272 13.8268H91.0048V14.6121H91.9453V7.70001H90.9637V10.4301H90.8907C90.6213 9.88229 90.0461 9.55814 89.3658 9.55814C88.1103 9.55814 87.3023 10.5534 87.3023 12.1239C87.3023 13.699 88.1012 14.6943 89.3658 14.6943ZM89.6443 10.4393C90.4661 10.4393 90.982 11.0921 90.982 12.1285C90.982 13.1694 90.4707 13.8131 89.6443 13.8131C88.8134 13.8131 88.3158 13.1785 88.3158 12.1239C88.3158 11.0784 88.818 10.4393 89.6443 10.4393Z" fill="white"/>
<path d="M98.3104 14.7079C99.7622 14.7079 100.652 13.7355 100.652 12.1239C100.652 10.5214 99.7577 9.54445 98.3104 9.54445C96.8586 9.54445 95.9638 10.5214 95.9638 12.1239C95.9638 13.7355 96.854 14.7079 98.3104 14.7079ZM98.3104 13.8359C97.4567 13.8359 96.9773 13.2105 96.9773 12.1239C96.9773 11.0465 97.4567 10.4164 98.3104 10.4164C99.1596 10.4164 99.6435 11.0465 99.6435 12.1239C99.6435 13.2059 99.1596 13.8359 98.3104 13.8359Z" fill="white"/>
<path d="M101.952 14.6121H102.933V11.7039C102.933 10.9278 103.394 10.4438 104.12 10.4438C104.846 10.4438 105.193 10.841 105.193 11.64V14.6121H106.175V11.3934C106.175 10.211 105.563 9.54445 104.454 9.54445C103.705 9.54445 103.212 9.87772 102.97 10.4301H102.897V9.64032H101.952V14.6121Z" fill="white"/>
<path d="M110.696 8.40309V9.66315H109.906V10.4895H110.696V13.2972C110.696 14.256 111.129 14.6395 112.22 14.6395C112.412 14.6395 112.595 14.6166 112.755 14.5892V13.772C112.618 13.7857 112.531 13.7949 112.38 13.7949C111.892 13.7949 111.677 13.5666 111.677 13.0461V10.4895H112.755V9.66315H111.677V8.40309H110.696Z" fill="white"/>
<path d="M114.072 14.6121H115.054V11.7085C115.054 10.9552 115.501 10.4484 116.305 10.4484C116.999 10.4484 117.368 10.8502 117.368 11.6445V14.6121H118.35V11.4026C118.35 10.2201 117.697 9.54901 116.638 9.54901C115.889 9.54901 115.364 9.88229 115.122 10.4393H115.045V7.70001H114.072V14.6121Z" fill="white"/>
<path d="M121.891 10.3799C122.617 10.3799 123.092 10.8867 123.114 11.6674H120.603C120.658 10.8912 121.165 10.3799 121.891 10.3799ZM123.11 13.2698C122.927 13.6579 122.521 13.8725 121.927 13.8725C121.142 13.8725 120.635 13.3201 120.603 12.4481V12.3933H124.114V12.0509C124.114 10.4895 123.279 9.54445 121.895 9.54445C120.494 9.54445 119.604 10.5534 119.604 12.1422C119.604 13.7309 120.476 14.7079 121.9 14.7079C123.037 14.7079 123.831 14.1601 124.055 13.2698H123.11Z" fill="white"/>
<path d="M36.0768 20.7736C36.1006 18.9245 37.0936 17.1748 38.669 16.2063C37.6752 14.7869 36.0106 13.887 34.2787 13.8328C32.4315 13.639 30.6408 14.9382 29.6995 14.9382C28.74 14.9382 27.2908 13.8521 25.7302 13.8842C23.696 13.9499 21.7996 15.1064 20.81 16.8849C18.6826 20.5681 20.2694 25.9813 22.3073 28.9585C23.3269 30.4164 24.5185 32.0449 26.0777 31.9872C27.6034 31.9239 28.1733 31.0142 30.015 31.0142C31.8396 31.0142 32.3743 31.9872 33.9651 31.9505C35.6023 31.9239 36.6339 30.4861 37.6177 29.0144C38.3502 27.9756 38.914 26.8275 39.2879 25.6126C37.3639 24.7989 36.079 22.8626 36.0768 20.7736Z" fill="white"/>
<path d="M33.0719 11.8748C33.9646 10.8032 34.4044 9.42581 34.2979 8.03516C32.9341 8.1784 31.6743 8.83021 30.7696 9.86073C29.8849 10.8676 29.4245 12.2208 29.5115 13.5583C30.8758 13.5723 32.217 12.9382 33.0719 11.8748Z" fill="white"/>
<rect x="164" width="148.5" height="44" rx="5" fill="black"/>
<path d="M238.95 23.926C236.363 23.926 234.254 25.8939 234.254 28.6043C234.254 31.2982 236.363 33.2826 238.95 33.2826C241.538 33.2826 243.647 31.2982 243.647 28.6043C243.646 25.8939 241.537 23.926 238.95 23.926ZM238.95 31.4412C237.532 31.4412 236.31 30.2719 236.31 28.6054C236.31 26.9213 237.533 25.7696 238.95 25.7696C240.368 25.7696 241.59 26.9213 241.59 28.6054C241.59 30.2708 240.368 31.4412 238.95 31.4412ZM228.704 23.926C226.117 23.926 224.009 25.8939 224.009 28.6043C224.009 31.2982 226.117 33.2826 228.704 33.2826C231.293 33.2826 233.401 31.2982 233.401 28.6043C233.401 25.8939 231.293 23.926 228.704 23.926ZM228.704 31.4412C227.287 31.4412 226.064 30.2719 226.064 28.6054C226.064 26.9213 227.288 25.7696 228.704 25.7696C230.122 25.7696 231.344 26.9213 231.344 28.6054C231.346 30.2708 230.122 31.4412 228.704 31.4412ZM216.519 25.3626V27.347H221.268C221.127 28.4635 220.755 29.2786 220.187 29.8451C219.496 30.5359 218.415 31.2982 216.519 31.2982C213.595 31.2982 211.309 28.9409 211.309 26.0171C211.309 23.0933 213.595 20.736 216.519 20.736C218.096 20.736 219.248 21.3564 220.098 22.1539L221.498 20.7536C220.31 19.6195 218.734 18.7516 216.519 18.7516C212.514 18.7516 209.146 22.012 209.146 26.0171C209.146 30.0222 212.514 33.2826 216.519 33.2826C218.68 33.2826 220.311 32.5731 221.586 31.2443C222.898 29.9331 223.306 28.0895 223.306 26.6012C223.306 26.1414 223.27 25.7157 223.199 25.3615H216.519V25.3626ZM266.357 26.9037C265.968 25.8587 264.78 23.926 262.352 23.926C259.942 23.926 257.939 25.8224 257.939 28.6043C257.939 31.2267 259.925 33.2826 262.582 33.2826C264.726 33.2826 265.967 31.9714 266.482 31.2091L264.887 30.1454C264.355 30.9253 263.628 31.439 262.582 31.439C261.537 31.439 260.793 30.9605 260.314 30.0211L266.57 27.4339L266.357 26.9037ZM259.977 28.4635C259.925 26.6551 261.378 25.7344 262.424 25.7344C263.239 25.7344 263.93 26.1425 264.161 26.7266L259.977 28.4635ZM254.892 32.9999H256.947V19.2488H254.892V32.9999ZM251.524 24.9721H251.454C250.993 24.4221 250.106 23.926 248.991 23.926C246.651 23.926 244.507 25.9819 244.507 28.623C244.507 31.2454 246.651 33.2837 248.991 33.2837C250.107 33.2837 250.993 32.7876 251.454 32.2211H251.524V32.8943C251.524 34.684 250.567 35.641 249.026 35.641C247.767 35.641 246.988 34.7379 246.669 33.9756L244.879 34.7203C245.393 35.96 246.757 37.4846 249.026 37.4846C251.436 37.4846 253.474 36.0667 253.474 32.6105V24.2109H251.525V24.9721H251.524ZM249.168 31.4412C247.75 31.4412 246.563 30.2532 246.563 28.623C246.563 26.9741 247.75 25.7696 249.168 25.7696C250.567 25.7696 251.666 26.9741 251.666 28.623C251.666 30.2532 250.567 31.4412 249.168 31.4412ZM275.987 19.2488H271.069V32.9999H273.12V27.7903H275.986C278.261 27.7903 280.498 26.1436 280.498 23.5201C280.498 20.8966 278.262 19.2488 275.987 19.2488ZM276.04 25.8763H273.12V21.1628H276.04C277.574 21.1628 278.445 22.4333 278.445 23.5201C278.445 24.5849 277.574 25.8763 276.04 25.8763ZM288.725 23.9018C287.239 23.9018 285.7 24.5563 285.063 26.0072L286.885 26.7673C287.274 26.0072 288 25.7586 288.76 25.7586C289.822 25.7586 290.901 26.3955 290.918 27.5274V27.6693C290.546 27.457 289.75 27.1391 288.778 27.1391C286.814 27.1391 284.814 28.2182 284.814 30.2345C284.814 32.0748 286.425 33.2595 288.229 33.2595C289.608 33.2595 290.369 32.6402 290.847 31.9142H290.917V32.9757H292.899V27.7034C292.9 25.2636 291.077 23.9018 288.725 23.9018ZM288.476 31.4379C287.805 31.4379 286.867 31.1013 286.867 30.2697C286.867 29.2082 288.035 28.8012 289.044 28.8012C289.945 28.8012 290.37 28.9959 290.918 29.261C290.759 30.5359 289.662 31.4379 288.476 31.4379ZM300.118 24.2021L297.765 30.1641H297.694L295.252 24.2021H293.041L296.703 32.5346L294.615 37.17H296.756L302.4 24.2021H300.118ZM281.631 32.9999H283.682V19.2488H281.631V32.9999Z" fill="white"/>
<path d="M216.159 11.267C216.159 12.1888 215.886 12.9225 215.339 13.4703C214.719 14.1215 213.909 14.4471 212.915 14.4471C211.962 14.4471 211.152 14.1171 210.486 13.4571C209.82 12.796 209.486 11.9776 209.486 11.0008C209.486 10.0229 209.82 9.20452 210.486 8.54452C211.152 7.88342 211.962 7.55342 212.915 7.55342C213.388 7.55342 213.84 7.64582 214.269 7.82952C214.699 8.01432 215.044 8.25962 215.301 8.56652L214.721 9.14732C214.285 8.62482 213.683 8.36412 212.914 8.36412C212.219 8.36412 211.618 8.60832 211.111 9.09672C210.604 9.58512 210.351 10.2198 210.351 10.9997C210.351 11.7796 210.604 12.4143 211.111 12.9027C211.618 13.3911 212.219 13.6353 212.914 13.6353C213.651 13.6353 214.266 13.39 214.758 12.8983C215.077 12.5782 215.261 12.1327 215.311 11.5618H212.914V10.7687H216.112C216.145 10.9414 216.159 11.1075 216.159 11.267Z" fill="white"/>
<path d="M221.23 8.51048H218.225V10.6027H220.935V11.3958H218.225V13.488H221.23V14.2998H217.377V7.69978H221.23V8.51048Z" fill="white"/>
<path d="M224.806 14.2998H223.958V8.51048H222.114V7.69978H226.65V8.51048H224.806V14.2998Z" fill="white"/>
<path d="M229.931 14.2998V7.69978H230.779V14.2998H229.931Z" fill="white"/>
<path d="M234.54 14.2998H233.692V8.51048H231.848V7.69978H236.384V8.51048H234.54V14.2998Z" fill="white"/>
<path d="M244.969 13.4473C244.32 14.1139 243.514 14.4472 242.549 14.4472C241.584 14.4472 240.778 14.1139 240.13 13.4473C239.481 12.7807 239.158 11.9645 239.158 10.9998C239.158 10.0351 239.481 9.21887 240.13 8.55227C240.778 7.88567 241.584 7.55127 242.549 7.55127C243.508 7.55127 244.313 7.88677 244.964 8.55667C245.616 9.22657 245.941 10.0406 245.941 10.9998C245.941 11.9645 245.617 12.7807 244.969 13.4473ZM240.756 12.894C241.244 13.389 241.842 13.6354 242.549 13.6354C243.256 13.6354 243.855 13.3879 244.342 12.894C244.83 12.399 245.076 11.7676 245.076 10.9998C245.076 10.232 244.83 9.60057 244.342 9.10557C243.855 8.61057 243.256 8.36417 242.549 8.36417C241.842 8.36417 241.244 8.61167 240.756 9.10557C240.269 9.60057 240.023 10.232 240.023 10.9998C240.023 11.7676 240.269 12.399 240.756 12.894Z" fill="white"/>
<path d="M247.132 14.2998V7.69978H248.163L251.371 12.8335H251.407L251.371 11.5619V7.69978H252.219V14.2998H251.334L247.977 8.91638H247.941L247.977 10.188V14.2998H247.132Z" fill="white"/>
<path d="M216.159 11.267C216.159 12.1888 215.886 12.9225 215.339 13.4703C214.719 14.1215 213.909 14.4471 212.915 14.4471C211.962 14.4471 211.152 14.1171 210.486 13.4571C209.82 12.796 209.486 11.9776 209.486 11.0008C209.486 10.0229 209.82 9.20452 210.486 8.54452C211.152 7.88342 211.962 7.55342 212.915 7.55342C213.388 7.55342 213.84 7.64582 214.269 7.82952C214.699 8.01432 215.044 8.25962 215.301 8.56652L214.721 9.14732C214.285 8.62482 213.683 8.36412 212.914 8.36412C212.219 8.36412 211.618 8.60832 211.111 9.09672C210.604 9.58512 210.351 10.2198 210.351 10.9997C210.351 11.7796 210.604 12.4143 211.111 12.9027C211.618 13.3911 212.219 13.6353 212.914 13.6353C213.651 13.6353 214.266 13.39 214.758 12.8983C215.077 12.5782 215.261 12.1327 215.311 11.5618H212.914V10.7687H216.112C216.145 10.9414 216.159 11.1075 216.159 11.267Z" stroke="white" stroke-width="0.2" stroke-miterlimit="10"/>
<path d="M221.23 8.51048H218.225V10.6027H220.935V11.3958H218.225V13.488H221.23V14.2998H217.377V7.69978H221.23V8.51048Z" stroke="white" stroke-width="0.2" stroke-miterlimit="10"/>
<path d="M224.806 14.2998H223.958V8.51048H222.114V7.69978H226.65V8.51048H224.806V14.2998Z" stroke="white" stroke-width="0.2" stroke-miterlimit="10"/>
<path d="M229.931 14.2998V7.69978H230.779V14.2998H229.931Z" stroke="white" stroke-width="0.2" stroke-miterlimit="10"/>
<path d="M234.54 14.2998H233.692V8.51048H231.848V7.69978H236.384V8.51048H234.54V14.2998Z" stroke="white" stroke-width="0.2" stroke-miterlimit="10"/>
<path d="M244.969 13.4473C244.32 14.1139 243.514 14.4472 242.549 14.4472C241.584 14.4472 240.778 14.1139 240.13 13.4473C239.481 12.7807 239.158 11.9645 239.158 10.9998C239.158 10.0351 239.481 9.21887 240.13 8.55227C240.778 7.88567 241.584 7.55127 242.549 7.55127C243.508 7.55127 244.313 7.88677 244.964 8.55667C245.616 9.22657 245.941 10.0406 245.941 10.9998C245.941 11.9645 245.617 12.7807 244.969 13.4473ZM240.756 12.894C241.244 13.389 241.842 13.6354 242.549 13.6354C243.256 13.6354 243.855 13.3879 244.342 12.894C244.83 12.399 245.076 11.7676 245.076 10.9998C245.076 10.232 244.83 9.60057 244.342 9.10557C243.855 8.61057 243.256 8.36417 242.549 8.36417C241.842 8.36417 241.244 8.61167 240.756 9.10557C240.269 9.60057 240.023 10.232 240.023 10.9998C240.023 11.7676 240.269 12.399 240.756 12.894Z" stroke="white" stroke-width="0.2" stroke-miterlimit="10"/>
<path d="M247.132 14.2998V7.69978H248.163L251.371 12.8335H251.407L251.371 11.5619V7.69978H252.219V14.2998H251.334L247.977 8.91638H247.941L247.977 10.188V14.2998H247.132Z" stroke="white" stroke-width="0.2" stroke-miterlimit="10"/>
<g filter="url(#filter0_ii_0_275)">
<path d="M175.479 8.2916C175.159 8.6304 174.97 9.1562 174.97 9.8371V34.1647C174.97 34.8467 175.159 35.3714 175.479 35.7102L175.56 35.7894L189.188 22.1615V22.0009V21.8403L175.56 8.2113L175.479 8.2916Z" fill="url(#paint0_linear_0_275)"/>
<path d="M193.73 26.7049L189.188 22.1608V22.0002V21.8396L193.731 17.2966L193.834 17.3549L199.216 20.4129C200.753 21.2863 200.753 22.7152 199.216 23.5897L193.834 26.6477L193.73 26.7049Z" fill="url(#paint1_linear_0_275)"/>
<g filter="url(#filter1_i_0_275)">
<path d="M193.833 26.6476L189.187 22.0012L175.478 35.7105C175.984 36.2473 176.822 36.3133 177.764 35.7787L193.833 26.6476Z" fill="url(#paint2_linear_0_275)"/>
</g>
<path d="M193.833 17.3544L177.764 8.22436C176.822 7.68866 175.984 7.75576 175.478 8.29256L189.188 22.0019L193.833 17.3544Z" fill="url(#paint3_linear_0_275)"/>
</g>
<defs>
<filter id="filter0_ii_0_275" x="174.97" y="7.85468" width="25.3989" height="28.2932" filterUnits="userSpaceOnUse" color-interpolation-filters="sRGB">
<feFlood flood-opacity="0" result="BackgroundImageFix"/>
<feBlend mode="normal" in="SourceGraphic" in2="BackgroundImageFix" result="shape"/>
<feColorMatrix in="SourceAlpha" type="matrix" values="0 0 0 0 0 0 0 0 0 0 0 0 0 0 0 0 0 0 127 0" result="hardAlpha"/>
<feOffset dy="-0.15"/>
<feComposite in2="hardAlpha" operator="arithmetic" k2="-1" k3="1"/>
<feColorMatrix type="matrix" values="0 0 0 0 0 0 0 0 0 0 0 0 0 0 0 0 0 0 0.12 0"/>
<feBlend mode="normal" in2="shape" result="effect1_innerShadow_0_275"/>
<feColorMatrix in="SourceAlpha" type="matrix" values="0 0 0 0 0 0 0 0 0 0 0 0 0 0 0 0 0 0 127 0" result="hardAlpha"/>
<feOffset dy="0.15"/>
<feComposite in2="hardAlpha" operator="arithmetic" k2="-1" k3="1"/>
<feColorMatrix type="matrix" values="0 0 0 0 1 0 0 0 0 1 0 0 0 0 1 0 0 0 0.25 0"/>
<feBlend mode="normal" in2="effect1_innerShadow_0_275" result="effect2_innerShadow_0_275"/>
</filter>
<filter id="filter1_i_0_275" x="175.478" y="22.0012" width="18.3546" height="14.1467" filterUnits="userSpaceOnUse" color-interpolation-filters="sRGB">
<feFlood flood-opacity="0" result="BackgroundImageFix"/>
<feBlend mode="normal" in="SourceGraphic" in2="BackgroundImageFix" result="shape"/>
<feColorMatrix in="SourceAlpha" type="matrix" values="0 0 0 0 0 0 0 0 0 0 0 0 0 0 0 0 0 0 127 0" result="hardAlpha"/>
<feOffset dy="-0.15"/>
<feComposite in2="hardAlpha" operator="arithmetic" k2="-1" k3="1"/>
<feColorMatrix type="matrix" values="0 0 0 0 0 0 0 0 0 0 0 0 0 0 0 0 0 0 0.08 0"/>
<feBlend mode="normal" in2="shape" result="effect1_innerShadow_0_275"/>
</filter>
<linearGradient id="paint0_linear_0_275" x1="187.98" y1="9.5797" x2="169.52" y2="28.0399" gradientUnits="userSpaceOnUse">
<stop stop-color="#00A0FF"/>
<stop offset="0.0066" stop-color="#00A1FF"/>
<stop offset="0.2601" stop-color="#00BEFF"/>
<stop offset="0.5122" stop-color="#00D2FF"/>
<stop offset="0.7604" stop-color="#00DFFF"/>
<stop offset="1" stop-color="#00E3FF"/>
</linearGradient>
<linearGradient id="paint1_linear_0_275" x1="201.216" y1="22.0002" x2="174.601" y2="22.0002" gradientUnits="userSpaceOnUse">
<stop stop-color="#FFE000"/>
<stop offset="0.4087" stop-color="#FFBD00"/>
<stop offset="0.7754" stop-color="#FFA500"/>
<stop offset="1" stop-color="#FF9C00"/>
</linearGradient>
<linearGradient id="paint2_linear_0_275" x1="191.31" y1="24.5244" x2="166.275" y2="49.5588" gradientUnits="userSpaceOnUse">
<stop stop-color="#FF3A44"/>
<stop offset="1" stop-color="#C31162"/>
</linearGradient>
<linearGradient id="paint3_linear_0_275" x1="172.026" y1="0.194139" x2="183.205" y2="11.3727" gradientUnits="userSpaceOnUse">
<stop stop-color="#32A071"/>
<stop offset="0.0685" stop-color="#2DA771"/>
<stop offset="0.4762" stop-color="#15CF74"/>
<stop offset="0.8009" stop-color="#06E775"/>
<stop offset="1" stop-color="#00F076"/>
</linearGradient>
</defs>
</svg>
