<svg width="99" height="21" viewBox="0 0 99 21" fill="none" xmlns="http://www.w3.org/2000/svg">
<path d="M0.69 20V1.54H12V4.92H4.46V9.47H11.168V12.824H4.46V20H0.69ZM20.5932 20.39C19.5705 20.39 18.6259 20.208 17.7592 19.844C16.8925 19.48 16.1385 18.9773 15.4972 18.336C14.8559 17.6773 14.3532 16.906 13.9892 16.022C13.6425 15.138 13.4692 14.176 13.4692 13.136C13.4692 12.096 13.6512 11.1427 14.0152 10.276C14.3792 9.392 14.8819 8.62067 15.5232 7.962C16.1819 7.30333 16.9445 6.792 17.8112 6.428C18.6952 6.064 19.6572 5.882 20.6972 5.882C21.7199 5.882 22.6645 6.064 23.5312 6.428C24.3979 6.792 25.1519 7.30333 25.7932 7.962C26.4345 8.60333 26.9285 9.366 27.2752 10.25C27.6392 11.1167 27.8212 12.07 27.8212 13.11C27.8212 14.15 27.6392 15.112 27.2752 15.996C26.9112 16.88 26.3999 17.6513 25.7412 18.31C25.0999 18.9687 24.3372 19.48 23.4532 19.844C22.5865 20.208 21.6332 20.39 20.5932 20.39ZM20.6452 17.114C21.3039 17.114 21.8932 16.9407 22.4132 16.594C22.9332 16.2473 23.3405 15.7793 23.6352 15.19C23.9472 14.5833 24.1032 13.8987 24.1032 13.136C24.1032 12.3733 23.9472 11.6973 23.6352 11.108C23.3405 10.5013 22.9332 10.0247 22.4132 9.678C21.8932 9.33133 21.3039 9.158 20.6452 9.158C19.9865 9.158 19.3972 9.33133 18.8772 9.678C18.3572 10.0247 17.9412 10.5013 17.6292 11.108C17.3345 11.6973 17.1872 12.3733 17.1872 13.136C17.1872 13.8987 17.3345 14.5833 17.6292 15.19C17.9412 15.7793 18.3572 16.2473 18.8772 16.594C19.3972 16.9407 19.9865 17.114 20.6452 17.114ZM36.9448 20.39C35.9221 20.39 34.9774 20.208 34.1108 19.844C33.2441 19.48 32.4901 18.9773 31.8488 18.336C31.2074 17.6773 30.7048 16.906 30.3408 16.022C29.9941 15.138 29.8208 14.176 29.8208 13.136C29.8208 12.096 30.0028 11.1427 30.3668 10.276C30.7308 9.392 31.2334 8.62067 31.8748 7.962C32.5334 7.30333 33.2961 6.792 34.1628 6.428C35.0468 6.064 36.0088 5.882 37.0488 5.882C38.0714 5.882 39.0161 6.064 39.8828 6.428C40.7494 6.792 41.5034 7.30333 42.1448 7.962C42.7861 8.60333 43.2801 9.366 43.6268 10.25C43.9908 11.1167 44.1728 12.07 44.1728 13.11C44.1728 14.15 43.9908 15.112 43.6268 15.996C43.2628 16.88 42.7514 17.6513 42.0928 18.31C41.4514 18.9687 40.6888 19.48 39.8048 19.844C38.9381 20.208 37.9848 20.39 36.9448 20.39ZM36.9968 17.114C37.6554 17.114 38.2448 16.9407 38.7648 16.594C39.2848 16.2473 39.6921 15.7793 39.9868 15.19C40.2988 14.5833 40.4548 13.8987 40.4548 13.136C40.4548 12.3733 40.2988 11.6973 39.9868 11.108C39.6921 10.5013 39.2848 10.0247 38.7648 9.678C38.2448 9.33133 37.6554 9.158 36.9968 9.158C36.3381 9.158 35.7488 9.33133 35.2288 9.678C34.7088 10.0247 34.2928 10.5013 33.9808 11.108C33.6861 11.6973 33.5388 12.3733 33.5388 13.136C33.5388 13.8987 33.6861 14.5833 33.9808 15.19C34.2928 15.7793 34.7088 16.2473 35.2288 16.594C35.7488 16.9407 36.3381 17.114 36.9968 17.114ZM52.4643 20.39C51.5803 20.39 50.757 20.208 49.9943 19.844C49.2317 19.48 48.5643 18.9773 47.9923 18.336C47.4203 17.6773 46.9697 16.9147 46.6403 16.048C46.3283 15.1813 46.1723 14.2367 46.1723 13.214C46.1723 12.174 46.337 11.212 46.6663 10.328C46.9957 9.444 47.455 8.67267 48.0443 8.014C48.6337 7.338 49.3183 6.818 50.0983 6.454C50.8957 6.07267 51.7537 5.882 52.6723 5.882C53.5217 5.882 54.293 6.05533 54.9863 6.402C55.697 6.73133 56.2863 7.19933 56.7543 7.806V0.603999H60.3943V20H57.0403L56.9363 17.998C56.451 18.7433 55.8183 19.3327 55.0383 19.766C54.2757 20.182 53.4177 20.39 52.4643 20.39ZM53.3483 17.114C54.007 17.114 54.5963 16.9407 55.1163 16.594C55.6363 16.2473 56.0437 15.7793 56.3383 15.19C56.6503 14.5833 56.8063 13.8987 56.8063 13.136C56.8063 12.3733 56.6503 11.6973 56.3383 11.108C56.0437 10.5013 55.6363 10.0247 55.1163 9.678C54.5963 9.33133 54.007 9.158 53.3483 9.158C52.6897 9.158 52.1003 9.33133 51.5803 9.678C51.0603 10.0247 50.6443 10.5013 50.3323 11.108C50.0377 11.6973 49.8903 12.3733 49.8903 13.136C49.8903 13.8987 50.0377 14.5833 50.3323 15.19C50.6443 15.7793 51.0603 16.2473 51.5803 16.594C52.1003 16.9407 52.6897 17.114 53.3483 17.114ZM69.6678 20.39C68.6798 20.39 67.7611 20.2167 66.9118 19.87C66.0798 19.506 65.3518 19.0033 64.7278 18.362C64.1211 17.7207 63.6445 16.9667 63.2978 16.1C62.9511 15.216 62.7778 14.2627 62.7778 13.24C62.7778 12.2 62.9511 11.238 63.2978 10.354C63.6618 9.45267 64.1558 8.67267 64.7798 8.014C65.4211 7.338 66.1665 6.818 67.0158 6.454C67.8651 6.07267 68.7838 5.882 69.7718 5.882C70.7598 5.882 71.6698 6.07267 72.5018 6.454C73.3338 6.818 74.0358 7.338 74.6078 8.014C75.1971 8.69 75.6045 9.47867 75.8298 10.38L72.3718 11.056C72.1118 10.4667 71.7478 10.0073 71.2798 9.678C70.8118 9.33133 70.2831 9.158 69.6938 9.158C69.0698 9.158 68.5151 9.33133 68.0298 9.678C67.5618 10.0247 67.1891 10.51 66.9118 11.134C66.6345 11.7407 66.4958 12.4253 66.4958 13.188C66.4958 13.9507 66.6258 14.6267 66.8858 15.216C67.1631 15.8053 67.5445 16.2733 68.0298 16.62C68.5151 16.9493 69.0698 17.114 69.6938 17.114C70.3178 17.114 70.8811 16.9493 71.3838 16.62C71.8865 16.2907 72.2591 15.8227 72.5018 15.216L75.9598 15.892C75.7345 16.8107 75.3098 17.608 74.6858 18.284C74.0791 18.96 73.3425 19.48 72.4758 19.844C71.6091 20.208 70.6731 20.39 69.6678 20.39ZM84.603 20.39C83.5803 20.39 82.6356 20.208 81.769 19.844C80.9023 19.48 80.1483 18.9773 79.507 18.336C78.8656 17.6773 78.363 16.906 77.999 16.022C77.6523 15.138 77.479 14.176 77.479 13.136C77.479 12.096 77.661 11.1427 78.025 10.276C78.389 9.392 78.8916 8.62067 79.533 7.962C80.1916 7.30333 80.9543 6.792 81.821 6.428C82.705 6.064 83.667 5.882 84.707 5.882C85.7296 5.882 86.6743 6.064 87.541 6.428C88.4076 6.792 89.1616 7.30333 89.803 7.962C90.4443 8.60333 90.9383 9.366 91.285 10.25C91.649 11.1167 91.831 12.07 91.831 13.11C91.831 14.15 91.649 15.112 91.285 15.996C90.921 16.88 90.4096 17.6513 89.751 18.31C89.1096 18.9687 88.347 19.48 87.463 19.844C86.5963 20.208 85.643 20.39 84.603 20.39ZM84.655 17.114C85.3136 17.114 85.903 16.9407 86.423 16.594C86.943 16.2473 87.3503 15.7793 87.645 15.19C87.957 14.5833 88.113 13.8987 88.113 13.136C88.113 12.3733 87.957 11.6973 87.645 11.108C87.3503 10.5013 86.943 10.0247 86.423 9.678C85.903 9.33133 85.3136 9.158 84.655 9.158C83.9963 9.158 83.407 9.33133 82.887 9.678C82.367 10.0247 81.951 10.5013 81.639 11.108C81.3443 11.6973 81.197 12.3733 81.197 13.136C81.197 13.8987 81.3443 14.5833 81.639 15.19C81.951 15.7793 82.367 16.2473 82.887 16.594C83.407 16.9407 83.9963 17.114 84.655 17.114ZM95.8967 20.104C95.4634 20.104 95.0734 20 94.7267 19.792C94.3974 19.584 94.1287 19.3067 93.9207 18.96C93.7127 18.6133 93.6087 18.232 93.6087 17.816C93.6087 17.4 93.7127 17.0187 93.9207 16.672C94.1287 16.3253 94.3974 16.048 94.7267 15.84C95.0734 15.632 95.4634 15.528 95.8967 15.528C96.3301 15.528 96.7114 15.632 97.0407 15.84C97.3874 16.048 97.6647 16.3253 97.8727 16.672C98.0807 17.0187 98.1847 17.4 98.1847 17.816C98.1847 18.232 98.0807 18.6133 97.8727 18.96C97.6647 19.3067 97.3874 19.584 97.0407 19.792C96.7114 20 96.3301 20.104 95.8967 20.104Z" fill="white"/>
</svg>
