<svg width="121" height="25" viewBox="0 0 121 25" fill="none" xmlns="http://www.w3.org/2000/svg">
<path d="M0.0800002 24V1.28H14V5.44H4.72V11.04H12.976V15.168H4.72V24H0.0800002ZM24.5763 24.48C23.3176 24.48 22.1549 24.256 21.0883 23.808C20.0216 23.36 19.0936 22.7413 18.3043 21.952C17.5149 21.1413 16.8963 20.192 16.4483 19.104C16.0216 18.016 15.8083 16.832 15.8083 15.552C15.8083 14.272 16.0323 13.0987 16.4803 12.032C16.9283 10.944 17.5469 9.99467 18.3363 9.184C19.1469 8.37333 20.0856 7.744 21.1523 7.296C22.2403 6.848 23.4243 6.624 24.7043 6.624C25.9629 6.624 27.1256 6.848 28.1923 7.296C29.2589 7.744 30.1869 8.37333 30.9763 9.184C31.7656 9.97333 32.3736 10.912 32.8003 12C33.2483 13.0667 33.4722 14.24 33.4722 15.52C33.4722 16.8 33.2483 17.984 32.8003 19.072C32.3523 20.16 31.7229 21.1093 30.9123 21.92C30.1229 22.7307 29.1843 23.36 28.0963 23.808C27.0296 24.256 25.8563 24.48 24.5763 24.48ZM24.6403 20.448C25.4509 20.448 26.1763 20.2347 26.8163 19.808C27.4563 19.3813 27.9576 18.8053 28.3203 18.08C28.7043 17.3333 28.8963 16.4907 28.8963 15.552C28.8963 14.6133 28.7043 13.7813 28.3203 13.056C27.9576 12.3093 27.4563 11.7227 26.8163 11.296C26.1763 10.8693 25.4509 10.656 24.6403 10.656C23.8296 10.656 23.1043 10.8693 22.4643 11.296C21.8243 11.7227 21.3123 12.3093 20.9283 13.056C20.5656 13.7813 20.3843 14.6133 20.3843 15.552C20.3843 16.4907 20.5656 17.3333 20.9283 18.08C21.3123 18.8053 21.8243 19.3813 22.4643 19.808C23.1043 20.2347 23.8296 20.448 24.6403 20.448ZM44.7013 24.48C43.4426 24.48 42.2799 24.256 41.2133 23.808C40.1466 23.36 39.2186 22.7413 38.4293 21.952C37.6399 21.1413 37.0213 20.192 36.5733 19.104C36.1466 18.016 35.9333 16.832 35.9333 15.552C35.9333 14.272 36.1573 13.0987 36.6053 12.032C37.0533 10.944 37.6719 9.99467 38.4613 9.184C39.2719 8.37333 40.2106 7.744 41.2773 7.296C42.3653 6.848 43.5493 6.624 44.8293 6.624C46.0879 6.624 47.2506 6.848 48.3173 7.296C49.3839 7.744 50.3119 8.37333 51.1013 9.184C51.8906 9.97333 52.4986 10.912 52.9253 12C53.3733 13.0667 53.5972 14.24 53.5972 15.52C53.5972 16.8 53.3733 17.984 52.9253 19.072C52.4773 20.16 51.8479 21.1093 51.0373 21.92C50.2479 22.7307 49.3093 23.36 48.2213 23.808C47.1546 24.256 45.9813 24.48 44.7013 24.48ZM44.7653 20.448C45.5759 20.448 46.3013 20.2347 46.9413 19.808C47.5813 19.3813 48.0826 18.8053 48.4453 18.08C48.8293 17.3333 49.0213 16.4907 49.0213 15.552C49.0213 14.6133 48.8293 13.7813 48.4453 13.056C48.0826 12.3093 47.5813 11.7227 46.9413 11.296C46.3013 10.8693 45.5759 10.656 44.7653 10.656C43.9546 10.656 43.2293 10.8693 42.5893 11.296C41.9493 11.7227 41.4373 12.3093 41.0533 13.056C40.6906 13.7813 40.5093 14.6133 40.5093 15.552C40.5093 16.4907 40.6906 17.3333 41.0533 18.08C41.4373 18.8053 41.9493 19.3813 42.5893 19.808C43.2293 20.2347 43.9546 20.448 44.7653 20.448ZM63.8023 24.48C62.7143 24.48 61.7009 24.256 60.7623 23.808C59.8236 23.36 59.0023 22.7413 58.2983 21.952C57.5943 21.1413 57.0396 20.2027 56.6343 19.136C56.2503 18.0693 56.0583 16.9067 56.0583 15.648C56.0583 14.368 56.2609 13.184 56.6663 12.096C57.0716 11.008 57.6369 10.0587 58.3623 9.248C59.0876 8.416 59.9303 7.776 60.8903 7.328C61.8716 6.85867 62.9276 6.624 64.0583 6.624C65.1036 6.624 66.0529 6.83733 66.9063 7.264C67.7809 7.66933 68.5063 8.24533 69.0823 8.992V0.127998H73.5623V24H69.4343L69.3063 21.536C68.7089 22.4533 67.9303 23.1787 66.9703 23.712C66.0316 24.224 64.9756 24.48 63.8023 24.48ZM64.8903 20.448C65.7009 20.448 66.4263 20.2347 67.0663 19.808C67.7063 19.3813 68.2076 18.8053 68.5703 18.08C68.9543 17.3333 69.1463 16.4907 69.1463 15.552C69.1463 14.6133 68.9543 13.7813 68.5703 13.056C68.2076 12.3093 67.7063 11.7227 67.0663 11.296C66.4263 10.8693 65.7009 10.656 64.8903 10.656C64.0796 10.656 63.3543 10.8693 62.7143 11.296C62.0743 11.7227 61.5623 12.3093 61.1783 13.056C60.8156 13.7813 60.6343 14.6133 60.6343 15.552C60.6343 16.4907 60.8156 17.3333 61.1783 18.08C61.5623 18.8053 62.0743 19.3813 62.7143 19.808C63.3543 20.2347 64.0796 20.448 64.8903 20.448ZM84.9758 24.48C83.7598 24.48 82.6291 24.2667 81.5838 23.84C80.5598 23.392 79.6638 22.7733 78.8958 21.984C78.1491 21.1947 77.5624 20.2667 77.1358 19.2C76.7091 18.112 76.4958 16.9387 76.4958 15.68C76.4958 14.4 76.7091 13.216 77.1358 12.128C77.5838 11.0187 78.1918 10.0587 78.9598 9.248C79.7491 8.416 80.6664 7.776 81.7118 7.328C82.7571 6.85867 83.8878 6.624 85.1038 6.624C86.3198 6.624 87.4398 6.85867 88.4638 7.328C89.4878 7.776 90.3518 8.416 91.0558 9.248C91.7811 10.08 92.2824 11.0507 92.5598 12.16L88.3038 12.992C87.9838 12.2667 87.5358 11.7013 86.9598 11.296C86.3838 10.8693 85.7331 10.656 85.0078 10.656C84.2398 10.656 83.5571 10.8693 82.9598 11.296C82.3838 11.7227 81.9251 12.32 81.5838 13.088C81.2424 13.8347 81.0718 14.6773 81.0718 15.616C81.0718 16.5547 81.2318 17.3867 81.5518 18.112C81.8931 18.8373 82.3624 19.4133 82.9598 19.84C83.5571 20.2453 84.2398 20.448 85.0078 20.448C85.7758 20.448 86.4691 20.2453 87.0878 19.84C87.7064 19.4347 88.1651 18.8587 88.4638 18.112L92.7198 18.944C92.4424 20.0747 91.9198 21.056 91.1518 21.888C90.4051 22.72 89.4984 23.36 88.4318 23.808C87.3651 24.256 86.2131 24.48 84.9758 24.48ZM103.358 24.48C102.099 24.48 100.936 24.256 99.8695 23.808C98.8028 23.36 97.8748 22.7413 97.0855 21.952C96.2962 21.1413 95.6775 20.192 95.2295 19.104C94.8028 18.016 94.5895 16.832 94.5895 15.552C94.5895 14.272 94.8135 13.0987 95.2615 12.032C95.7095 10.944 96.3282 9.99467 97.1175 9.184C97.9282 8.37333 98.8668 7.744 99.9335 7.296C101.022 6.848 102.206 6.624 103.486 6.624C104.744 6.624 105.907 6.848 106.974 7.296C108.04 7.744 108.968 8.37333 109.758 9.184C110.547 9.97333 111.155 10.912 111.582 12C112.03 13.0667 112.253 14.24 112.253 15.52C112.253 16.8 112.03 17.984 111.582 19.072C111.134 20.16 110.504 21.1093 109.694 21.92C108.904 22.7307 107.966 23.36 106.878 23.808C105.811 24.256 104.638 24.48 103.358 24.48ZM103.422 20.448C104.232 20.448 104.958 20.2347 105.598 19.808C106.238 19.3813 106.739 18.8053 107.102 18.08C107.486 17.3333 107.678 16.4907 107.678 15.552C107.678 14.6133 107.486 13.7813 107.102 13.056C106.739 12.3093 106.238 11.7227 105.598 11.296C104.958 10.8693 104.232 10.656 103.422 10.656C102.611 10.656 101.886 10.8693 101.246 11.296C100.606 11.7227 100.094 12.3093 99.7095 13.056C99.3468 13.7813 99.1655 14.6133 99.1655 15.552C99.1655 16.4907 99.3468 17.3333 99.7095 18.08C100.094 18.8053 100.606 19.3813 101.246 19.808C101.886 20.2347 102.611 20.448 103.422 20.448Z" fill="#353237"/>
<path d="M117.726 24.128C117.193 24.128 116.713 24 116.286 23.744C115.881 23.488 115.55 23.1467 115.294 22.72C115.038 22.2933 114.91 21.824 114.91 21.312C114.91 20.8 115.038 20.3307 115.294 19.904C115.55 19.4773 115.881 19.136 116.286 18.88C116.713 18.624 117.193 18.496 117.726 18.496C118.26 18.496 118.729 18.624 119.134 18.88C119.561 19.136 119.902 19.4773 120.158 19.904C120.414 20.3307 120.542 20.8 120.542 21.312C120.542 21.824 120.414 22.2933 120.158 22.72C119.902 23.1467 119.561 23.488 119.134 23.744C118.729 24 118.26 24.128 117.726 24.128Z" fill="#FF6B01"/>
</svg>
