<svg width="149" height="44" viewBox="0 0 149 44" fill="none" xmlns="http://www.w3.org/2000/svg">
<rect width="148.5" height="44" rx="5" fill="black"/>
<path d="M74.9499 23.926C72.3627 23.926 70.254 25.8939 70.254 28.6043C70.254 31.2982 72.3627 33.2826 74.9499 33.2826C77.5382 33.2826 79.6469 31.2982 79.6469 28.6043C79.6458 25.8939 77.5371 23.926 74.9499 23.926ZM74.9499 31.4412C73.532 31.4412 72.3099 30.2719 72.3099 28.6054C72.3099 26.9213 73.5331 25.7696 74.9499 25.7696C76.3678 25.7696 77.5899 26.9213 77.5899 28.6054C77.5899 30.2708 76.3678 31.4412 74.9499 31.4412ZM64.7045 23.926C62.1173 23.926 60.0086 25.8939 60.0086 28.6043C60.0086 31.2982 62.1173 33.2826 64.7045 33.2826C67.2928 33.2826 69.4015 31.2982 69.4015 28.6043C69.4015 25.8939 67.2928 23.926 64.7045 23.926ZM64.7045 31.4412C63.2866 31.4412 62.0645 30.2719 62.0645 28.6054C62.0645 26.9213 63.2877 25.7696 64.7045 25.7696C66.1224 25.7696 67.3445 26.9213 67.3445 28.6054C67.3456 30.2708 66.1224 31.4412 64.7045 31.4412ZM52.5187 25.3626V27.347H57.2685C57.1266 28.4635 56.7548 29.2786 56.1872 29.8451C55.4964 30.5359 54.4151 31.2982 52.5187 31.2982C49.5949 31.2982 47.3091 28.9409 47.3091 26.0171C47.3091 23.0933 49.5949 20.736 52.5187 20.736C54.0961 20.736 55.2478 21.3564 56.0981 22.1539L57.4984 20.7536C56.3104 19.6195 54.7341 18.7516 52.5187 18.7516C48.5136 18.7516 45.1465 22.012 45.1465 26.0171C45.1465 30.0222 48.5136 33.2826 52.5187 33.2826C54.6802 33.2826 56.3115 32.5731 57.5864 31.2443C58.8976 29.9331 59.3057 28.0895 59.3057 26.6012C59.3057 26.1414 59.2705 25.7157 59.199 25.3615H52.5187V25.3626ZM102.357 26.9037C101.968 25.8587 100.78 23.926 98.3524 23.926C95.9423 23.926 93.9392 25.8224 93.9392 28.6043C93.9392 31.2267 95.9247 33.2826 98.5823 33.2826C100.726 33.2826 101.967 31.9714 102.482 31.2091L100.887 30.1454C100.355 30.9253 99.6284 31.439 98.5823 31.439C97.5373 31.439 96.7926 30.9605 96.3141 30.0211L102.57 27.4339L102.357 26.9037ZM95.9775 28.4635C95.9247 26.6551 97.3778 25.7344 98.4239 25.7344C99.239 25.7344 99.9298 26.1425 100.161 26.7266L95.9775 28.4635ZM90.8922 32.9999H92.947V19.2488H90.8922V32.9999ZM87.524 24.9721H87.4536C86.9927 24.4221 86.1061 23.926 84.9907 23.926C82.651 23.926 80.5071 25.9819 80.5071 28.623C80.5071 31.2454 82.651 33.2837 84.9907 33.2837C86.1072 33.2837 86.9927 32.7876 87.4536 32.2211H87.524V32.8943C87.524 34.684 86.567 35.641 85.0259 35.641C83.7675 35.641 82.9876 34.7379 82.6686 33.9756L80.8789 34.7203C81.3926 35.96 82.7566 37.4846 85.0259 37.4846C87.436 37.4846 89.4743 36.0667 89.4743 32.6105V24.2109H87.5251V24.9721H87.524ZM85.1678 31.4412C83.7499 31.4412 82.563 30.2532 82.563 28.623C82.563 26.9741 83.7499 25.7696 85.1678 25.7696C86.567 25.7696 87.6659 26.9741 87.6659 28.623C87.6659 30.2532 86.567 31.4412 85.1678 31.4412ZM111.987 19.2488H107.069V32.9999H109.12V27.7903H111.986C114.261 27.7903 116.498 26.1436 116.498 23.5201C116.498 20.8966 114.262 19.2488 111.987 19.2488ZM112.04 25.8763H109.12V21.1628H112.04C113.574 21.1628 114.445 22.4333 114.445 23.5201C114.445 24.5849 113.574 25.8763 112.04 25.8763ZM124.725 23.9018C123.239 23.9018 121.7 24.5563 121.063 26.0072L122.885 26.7673C123.274 26.0072 124 25.7586 124.76 25.7586C125.822 25.7586 126.901 26.3955 126.918 27.5274V27.6693C126.546 27.457 125.75 27.1391 124.778 27.1391C122.814 27.1391 120.814 28.2182 120.814 30.2345C120.814 32.0748 122.425 33.2595 124.229 33.2595C125.608 33.2595 126.369 32.6402 126.847 31.9142H126.917V32.9757H128.899V27.7034C128.9 25.2636 127.077 23.9018 124.725 23.9018ZM124.476 31.4379C123.805 31.4379 122.867 31.1013 122.867 30.2697C122.867 29.2082 124.035 28.8012 125.044 28.8012C125.945 28.8012 126.37 28.9959 126.918 29.261C126.759 30.5359 125.662 31.4379 124.476 31.4379ZM136.118 24.2021L133.765 30.1641H133.694L131.252 24.2021H129.041L132.703 32.5346L130.615 37.17H132.756L138.4 24.2021H136.118ZM117.631 32.9999H119.682V19.2488H117.631V32.9999Z" fill="white"/>
<path d="M52.1589 11.267C52.1589 12.1888 51.8861 12.9225 51.3394 13.4703C50.719 14.1215 49.9094 14.4471 48.915 14.4471C47.9624 14.4471 47.1517 14.1171 46.4862 13.4571C45.8196 12.796 45.4863 11.9776 45.4863 11.0008C45.4863 10.0229 45.8196 9.20452 46.4862 8.54452C47.1517 7.88342 47.9624 7.55342 48.915 7.55342C49.388 7.55342 49.8401 7.64582 50.2691 7.82952C50.6992 8.01432 51.0435 8.25962 51.3009 8.56652L50.7212 9.14732C50.2845 8.62482 49.6828 8.36412 48.9139 8.36412C48.2187 8.36412 47.6181 8.60832 47.111 9.09672C46.6039 9.58512 46.3509 10.2198 46.3509 10.9997C46.3509 11.7796 46.6039 12.4143 47.111 12.9027C47.6181 13.3911 48.2187 13.6353 48.9139 13.6353C49.6509 13.6353 50.2658 13.39 50.7575 12.8983C51.0765 12.5782 51.2613 12.1327 51.3108 11.5618H48.9139V10.7687H52.1116C52.1446 10.9414 52.1589 11.1075 52.1589 11.267Z" fill="white"/>
<path d="M57.23 8.51048H54.2248V10.6027H56.9352V11.3958H54.2248V13.488H57.23V14.2998H53.3767V7.69978H57.23V8.51048Z" fill="white"/>
<path d="M60.806 14.2998H59.9579V8.51048H58.1143V7.69978H62.6496V8.51048H60.806V14.2998Z" fill="white"/>
<path d="M65.9309 14.2998V7.69978H66.779V14.2998H65.9309Z" fill="white"/>
<path d="M70.54 14.2998H69.6919V8.51048H67.8483V7.69978H72.3836V8.51048H70.54V14.2998Z" fill="white"/>
<path d="M80.9689 13.4473C80.3199 14.1139 79.5136 14.4472 78.5489 14.4472C77.5842 14.4472 76.7779 14.1139 76.13 13.4473C75.481 12.7807 75.1576 11.9645 75.1576 10.9998C75.1576 10.0351 75.481 9.21887 76.13 8.55227C76.7779 7.88567 77.5842 7.55127 78.5489 7.55127C79.5081 7.55127 80.3133 7.88677 80.9645 8.55667C81.6157 9.22657 81.9413 10.0406 81.9413 10.9998C81.9413 11.9645 81.6168 12.7807 80.9689 13.4473ZM76.7559 12.894C77.2443 13.389 77.8416 13.6354 78.5489 13.6354C79.2562 13.6354 79.8546 13.3879 80.3419 12.894C80.8303 12.399 81.0756 11.7676 81.0756 10.9998C81.0756 10.232 80.8303 9.60057 80.3419 9.10557C79.8546 8.61057 79.2562 8.36417 78.5489 8.36417C77.8416 8.36417 77.2443 8.61167 76.7559 9.10557C76.2686 9.60057 76.0233 10.232 76.0233 10.9998C76.0233 11.7676 76.2686 12.399 76.7559 12.894Z" fill="white"/>
<path d="M83.1315 14.2998V7.69978H84.1633L87.3709 12.8335H87.4072L87.3709 11.5619V7.69978H88.219V14.2998H87.3335L83.9774 8.91638H83.9411L83.9774 10.188V14.2998H83.1315Z" fill="white"/>
<path d="M52.1589 11.267C52.1589 12.1888 51.8861 12.9225 51.3394 13.4703C50.719 14.1215 49.9094 14.4471 48.915 14.4471C47.9624 14.4471 47.1517 14.1171 46.4862 13.4571C45.8196 12.796 45.4863 11.9776 45.4863 11.0008C45.4863 10.0229 45.8196 9.20452 46.4862 8.54452C47.1517 7.88342 47.9624 7.55342 48.915 7.55342C49.388 7.55342 49.8401 7.64582 50.2691 7.82952C50.6992 8.01432 51.0435 8.25962 51.3009 8.56652L50.7212 9.14732C50.2845 8.62482 49.6828 8.36412 48.9139 8.36412C48.2187 8.36412 47.6181 8.60832 47.111 9.09672C46.6039 9.58512 46.3509 10.2198 46.3509 10.9997C46.3509 11.7796 46.6039 12.4143 47.111 12.9027C47.6181 13.3911 48.2187 13.6353 48.9139 13.6353C49.6509 13.6353 50.2658 13.39 50.7575 12.8983C51.0765 12.5782 51.2613 12.1327 51.3108 11.5618H48.9139V10.7687H52.1116C52.1446 10.9414 52.1589 11.1075 52.1589 11.267Z" stroke="white" stroke-width="0.2" stroke-miterlimit="10"/>
<path d="M57.23 8.51048H54.2248V10.6027H56.9352V11.3958H54.2248V13.488H57.23V14.2998H53.3767V7.69978H57.23V8.51048Z" stroke="white" stroke-width="0.2" stroke-miterlimit="10"/>
<path d="M60.806 14.2998H59.9579V8.51048H58.1143V7.69978H62.6496V8.51048H60.806V14.2998Z" stroke="white" stroke-width="0.2" stroke-miterlimit="10"/>
<path d="M65.9309 14.2998V7.69978H66.779V14.2998H65.9309Z" stroke="white" stroke-width="0.2" stroke-miterlimit="10"/>
<path d="M70.54 14.2998H69.6919V8.51048H67.8483V7.69978H72.3836V8.51048H70.54V14.2998Z" stroke="white" stroke-width="0.2" stroke-miterlimit="10"/>
<path d="M80.9689 13.4473C80.3199 14.1139 79.5136 14.4472 78.5489 14.4472C77.5842 14.4472 76.7779 14.1139 76.13 13.4473C75.481 12.7807 75.1576 11.9645 75.1576 10.9998C75.1576 10.0351 75.481 9.21887 76.13 8.55227C76.7779 7.88567 77.5842 7.55127 78.5489 7.55127C79.5081 7.55127 80.3133 7.88677 80.9645 8.55667C81.6157 9.22657 81.9413 10.0406 81.9413 10.9998C81.9413 11.9645 81.6168 12.7807 80.9689 13.4473ZM76.7559 12.894C77.2443 13.389 77.8416 13.6354 78.5489 13.6354C79.2562 13.6354 79.8546 13.3879 80.3419 12.894C80.8303 12.399 81.0756 11.7676 81.0756 10.9998C81.0756 10.232 80.8303 9.60057 80.3419 9.10557C79.8546 8.61057 79.2562 8.36417 78.5489 8.36417C77.8416 8.36417 77.2443 8.61167 76.7559 9.10557C76.2686 9.60057 76.0233 10.232 76.0233 10.9998C76.0233 11.7676 76.2686 12.399 76.7559 12.894Z" stroke="white" stroke-width="0.2" stroke-miterlimit="10"/>
<path d="M83.1315 14.2998V7.69978H84.1633L87.3709 12.8335H87.4072L87.3709 11.5619V7.69978H88.219V14.2998H87.3335L83.9774 8.91638H83.9411L83.9774 10.188V14.2998H83.1315Z" stroke="white" stroke-width="0.2" stroke-miterlimit="10"/>
<g filter="url(#filter0_ii_0_282)">
<path d="M11.479 8.2916C11.1589 8.6304 10.9697 9.1562 10.9697 9.8371V34.1647C10.9697 34.8467 11.1589 35.3714 11.479 35.7102L11.5604 35.7894L25.1883 22.1615V22.0009V21.8403L11.5604 8.2113L11.479 8.2916Z" fill="url(#paint0_linear_0_282)"/>
<path d="M29.7303 26.7049L25.1884 22.1608V22.0002V21.8396L29.7314 17.2966L29.8337 17.3549L35.216 20.4129C36.7527 21.2863 36.7527 22.7152 35.216 23.5897L29.8337 26.6477L29.7303 26.7049Z" fill="url(#paint1_linear_0_282)"/>
<g filter="url(#filter1_i_0_282)">
<path d="M29.8331 26.6476L25.1867 22.0012L11.4785 35.7105C11.9845 36.2473 12.8216 36.3133 13.7643 35.7787L29.8331 26.6476Z" fill="url(#paint2_linear_0_282)"/>
</g>
<path d="M29.8331 17.3544L13.7643 8.22436C12.8216 7.68866 11.9845 7.75576 11.4785 8.29256L25.1878 22.0019L29.8331 17.3544Z" fill="url(#paint3_linear_0_282)"/>
</g>
<defs>
<filter id="filter0_ii_0_282" x="10.9697" y="7.85468" width="25.3989" height="28.2932" filterUnits="userSpaceOnUse" color-interpolation-filters="sRGB">
<feFlood flood-opacity="0" result="BackgroundImageFix"/>
<feBlend mode="normal" in="SourceGraphic" in2="BackgroundImageFix" result="shape"/>
<feColorMatrix in="SourceAlpha" type="matrix" values="0 0 0 0 0 0 0 0 0 0 0 0 0 0 0 0 0 0 127 0" result="hardAlpha"/>
<feOffset dy="-0.15"/>
<feComposite in2="hardAlpha" operator="arithmetic" k2="-1" k3="1"/>
<feColorMatrix type="matrix" values="0 0 0 0 0 0 0 0 0 0 0 0 0 0 0 0 0 0 0.12 0"/>
<feBlend mode="normal" in2="shape" result="effect1_innerShadow_0_282"/>
<feColorMatrix in="SourceAlpha" type="matrix" values="0 0 0 0 0 0 0 0 0 0 0 0 0 0 0 0 0 0 127 0" result="hardAlpha"/>
<feOffset dy="0.15"/>
<feComposite in2="hardAlpha" operator="arithmetic" k2="-1" k3="1"/>
<feColorMatrix type="matrix" values="0 0 0 0 1 0 0 0 0 1 0 0 0 0 1 0 0 0 0.25 0"/>
<feBlend mode="normal" in2="effect1_innerShadow_0_282" result="effect2_innerShadow_0_282"/>
</filter>
<filter id="filter1_i_0_282" x="11.4785" y="22.0012" width="18.3546" height="14.1467" filterUnits="userSpaceOnUse" color-interpolation-filters="sRGB">
<feFlood flood-opacity="0" result="BackgroundImageFix"/>
<feBlend mode="normal" in="SourceGraphic" in2="BackgroundImageFix" result="shape"/>
<feColorMatrix in="SourceAlpha" type="matrix" values="0 0 0 0 0 0 0 0 0 0 0 0 0 0 0 0 0 0 127 0" result="hardAlpha"/>
<feOffset dy="-0.15"/>
<feComposite in2="hardAlpha" operator="arithmetic" k2="-1" k3="1"/>
<feColorMatrix type="matrix" values="0 0 0 0 0 0 0 0 0 0 0 0 0 0 0 0 0 0 0.08 0"/>
<feBlend mode="normal" in2="shape" result="effect1_innerShadow_0_282"/>
</filter>
<linearGradient id="paint0_linear_0_282" x1="23.9802" y1="9.5797" x2="5.52005" y2="28.0399" gradientUnits="userSpaceOnUse">
<stop stop-color="#00A0FF"/>
<stop offset="0.0066" stop-color="#00A1FF"/>
<stop offset="0.2601" stop-color="#00BEFF"/>
<stop offset="0.5122" stop-color="#00D2FF"/>
<stop offset="0.7604" stop-color="#00DFFF"/>
<stop offset="1" stop-color="#00E3FF"/>
</linearGradient>
<linearGradient id="paint1_linear_0_282" x1="37.2164" y1="22.0002" x2="10.6009" y2="22.0002" gradientUnits="userSpaceOnUse">
<stop stop-color="#FFE000"/>
<stop offset="0.4087" stop-color="#FFBD00"/>
<stop offset="0.7754" stop-color="#FFA500"/>
<stop offset="1" stop-color="#FF9C00"/>
</linearGradient>
<linearGradient id="paint2_linear_0_282" x1="27.3098" y1="24.5244" x2="2.27542" y2="49.5588" gradientUnits="userSpaceOnUse">
<stop stop-color="#FF3A44"/>
<stop offset="1" stop-color="#C31162"/>
</linearGradient>
<linearGradient id="paint3_linear_0_282" x1="8.02599" y1="0.194139" x2="19.2045" y2="11.3727" gradientUnits="userSpaceOnUse">
<stop stop-color="#32A071"/>
<stop offset="0.0685" stop-color="#2DA771"/>
<stop offset="0.4762" stop-color="#15CF74"/>
<stop offset="0.8009" stop-color="#06E775"/>
<stop offset="1" stop-color="#00F076"/>
</linearGradient>
</defs>
</svg>
