<svg width="29" height="27" viewBox="0 0 29 27" fill="none" xmlns="http://www.w3.org/2000/svg">
<path fill-rule="evenodd" clip-rule="evenodd" d="M13.5839 2.04124L14.5 0L15.4161 2.04124L18.7015 9.24742L26.7255 10.0825L29 10.3299L27.2941 11.8144L21.3235 17.1031L22.9978 24.8351L23.4717 27L21.4815 25.8866L14.5 21.9278L7.51852 25.8866L5.52832 27L6.00218 24.8351L7.67647 17.1031L1.70588 11.8144L0 10.3299L2.27451 10.0825L10.2985 9.24742L13.5839 2.04124ZM17.0901 10.5771L14.4997 4.85547L11.9093 10.5771L11.6566 11.1029L11.088 11.1647L4.73828 11.8142L9.47684 15.9895L9.91911 16.3916L9.79275 16.9483L8.46595 23.041L13.9943 19.9483L14.4997 19.639L15.0052 19.9483L20.5335 23.041L19.2067 16.9483L19.0803 16.3916L19.5226 15.9895L24.2612 11.8142L17.9115 11.1647L17.3429 11.1029L17.0901 10.5771Z" fill="white"/>
</svg>
