<svg width="10" height="10" viewBox="0 0 10 10" fill="none" xmlns="http://www.w3.org/2000/svg">
<path d="M9.67326 3.85555C9.64381 3.76882 9.5896 3.69261 9.51733 3.63633C9.44505 3.58005 9.35788 3.54616 9.26656 3.53885L6.59538 3.32663L5.43947 0.768252C5.40266 0.685851 5.34278 0.615865 5.26707 0.566738C5.19136 0.517611 5.10304 0.491444 5.01278 0.491394C4.92252 0.491345 4.83417 0.517415 4.75841 0.566459C4.68264 0.615502 4.62268 0.685423 4.58578 0.767783L3.42988 3.32663L0.758692 3.53885C0.668945 3.54596 0.583146 3.57877 0.51156 3.63336C0.439974 3.68795 0.385632 3.762 0.355036 3.84666C0.32444 3.93132 0.318885 4.023 0.339036 4.11073C0.359187 4.19846 0.40419 4.27853 0.468662 4.34136L2.44265 6.26542L1.74451 9.28806C1.72332 9.37956 1.73011 9.47531 1.76402 9.56289C1.79792 9.65048 1.85737 9.72585 1.93465 9.77924C2.01193 9.83262 2.10348 9.86154 2.1974 9.86226C2.29133 9.86298 2.38331 9.83545 2.46139 9.78325L5.01263 8.08266L7.56386 9.78325C7.64367 9.83623 7.7378 9.86351 7.83357 9.86141C7.92935 9.85931 8.02219 9.82793 8.0996 9.7715C8.17701 9.71507 8.23528 9.63629 8.26658 9.54576C8.29787 9.45523 8.30069 9.35729 8.27465 9.26511L7.41768 6.26682L9.54301 4.35448C9.68216 4.22893 9.73324 4.0331 9.67326 3.85555V3.85555Z" fill="#FABD20"/>
</svg>
